<svg width="258" height="93" viewBox="0 0 258 93" fill="none" xmlns="http://www.w3.org/2000/svg">
<path d="M79.472 46.14H91.604L90.632 50.82H78.536L79.472 46.14ZM77.168 60H71.3L76.34 34.8H95.384L94.412 39.48H81.236L77.168 60ZM95.3722 60L100.412 34.8H106.28L101.24 60H95.3722ZM108.265 60L113.305 34.8H118.129L128.965 53.052L127.057 52.944L130.657 34.8H136.417L131.377 60H126.589L115.717 41.748L117.661 41.856L114.025 60H108.265ZM135.107 60L151.379 34.8H157.175L163.367 60H157.535L152.639 37.68H154.943L141.335 60H135.107ZM141.839 54.6L144.215 50.172H157.211L157.895 54.6H141.839ZM167.061 60L172.101 34.8H177.969L173.865 55.248H186.501L185.529 60H167.061Z" fill="#EA5A37"/>
<path d="M68.6008 13.349C24.8625 24.5516 -30.7208 55.266 26.2408 78.8261C83.2023 102.386 186.723 87.1146 228.149 71.8967C252.58 62.9218 276.159 38.4275 228.149 20.9653C180.139 3.50311 82.6892 0.219435 48.4445 2.76023" stroke="#EA5A37" stroke-width="3" stroke-dasharray="10 10"/>
</svg>
