<svg width="204" height="93" viewBox="0 0 204 93" fill="none" xmlns="http://www.w3.org/2000/svg">
<path d="M53.7038 13.349C19.092 24.5516 -24.8932 55.266 20.1826 78.8261C65.2585 102.386 147.179 87.1146 179.96 71.8967C199.294 62.9217 217.953 38.4275 179.96 20.9653C141.968 3.50311 64.8525 0.219436 37.7533 2.76023" stroke="#EA5A37" stroke-width="3" stroke-dasharray="10 10"/>
<path d="M69.6508 44.952H81.7828L80.8828 49.488H68.7508L69.6508 44.952ZM67.9948 55.32H81.7468L80.7748 60H61.2628L66.3028 34.8H85.3468L84.3748 39.48H71.1628L67.9948 55.32ZM99.7432 60.432C97.1752 60.432 94.9552 59.976 93.0832 59.064C91.2352 58.128 89.8072 56.844 88.7992 55.212C87.7912 53.556 87.2872 51.648 87.2872 49.488C87.2872 47.352 87.6592 45.36 88.4032 43.512C89.1712 41.664 90.2392 40.068 91.6072 38.724C92.9992 37.356 94.6432 36.288 96.5392 35.52C98.4592 34.752 100.595 34.368 102.947 34.368C105.203 34.368 107.195 34.752 108.923 35.52C110.651 36.288 111.959 37.392 112.847 38.832L108.635 42.288C107.987 41.328 107.159 40.596 106.151 40.092C105.143 39.588 103.943 39.336 102.551 39.336C101.135 39.336 99.8512 39.588 98.6992 40.092C97.5472 40.572 96.5512 41.268 95.7112 42.18C94.8952 43.068 94.2712 44.112 93.8392 45.312C93.4072 46.512 93.1912 47.784 93.1912 49.128C93.1912 50.4 93.4672 51.516 94.0192 52.476C94.5712 53.412 95.3752 54.144 96.4312 54.672C97.4872 55.2 98.7592 55.464 100.247 55.464C101.543 55.464 102.755 55.236 103.883 54.78C105.011 54.3 106.031 53.556 106.943 52.548L110.399 56.076C109.079 57.612 107.507 58.728 105.683 59.424C103.883 60.096 101.903 60.432 99.7432 60.432ZM126.518 60.432C123.974 60.432 121.778 59.976 119.93 59.064C118.106 58.128 116.702 56.844 115.718 55.212C114.734 53.556 114.242 51.648 114.242 49.488C114.242 47.328 114.614 45.336 115.358 43.512C116.102 41.664 117.158 40.068 118.526 38.724C119.918 37.356 121.562 36.288 123.458 35.52C125.378 34.752 127.502 34.368 129.83 34.368C132.374 34.368 134.558 34.836 136.382 35.772C138.23 36.684 139.646 37.968 140.63 39.624C141.614 41.256 142.106 43.152 142.106 45.312C142.106 47.472 141.734 49.476 140.99 51.324C140.246 53.148 139.178 54.744 137.786 56.112C136.418 57.456 134.774 58.512 132.854 59.28C130.958 60.048 128.846 60.432 126.518 60.432ZM127.022 55.464C128.438 55.464 129.71 55.212 130.838 54.708C131.99 54.18 132.962 53.46 133.754 52.548C134.546 51.636 135.146 50.592 135.554 49.416C135.986 48.216 136.202 46.956 136.202 45.636C136.202 44.388 135.938 43.296 135.41 42.36C134.882 41.4 134.102 40.656 133.07 40.128C132.062 39.6 130.814 39.336 129.326 39.336C127.91 39.336 126.638 39.6 125.51 40.128C124.382 40.632 123.41 41.34 122.594 42.252C121.802 43.164 121.19 44.22 120.758 45.42C120.35 46.596 120.146 47.844 120.146 49.164C120.146 50.412 120.41 51.516 120.938 52.476C121.49 53.412 122.27 54.144 123.278 54.672C124.31 55.2 125.558 55.464 127.022 55.464Z" fill="#EA5A37"/>
</svg>
