<svg width="382" height="93" viewBox="0 0 382 93" fill="none" xmlns="http://www.w3.org/2000/svg">
<path d="M73.4156 60.432C70.9676 60.432 68.9276 59.952 67.2956 58.992C65.6636 58.032 64.5116 56.7 63.8396 54.996C63.1916 53.268 63.0956 51.24 63.5516 48.912L66.3596 34.8H72.2276L69.4196 48.804C69.2036 49.932 69.1436 50.916 69.2396 51.756C69.3356 52.596 69.5756 53.292 69.9596 53.844C70.3676 54.396 70.9196 54.804 71.6156 55.068C72.3116 55.332 73.1276 55.464 74.0636 55.464C75.2396 55.464 76.2596 55.236 77.1236 54.78C77.9876 54.324 78.7076 53.604 79.2836 52.62C79.8596 51.636 80.3036 50.364 80.6156 48.804L83.4236 34.8H89.1476L86.3036 49.164C85.5596 52.884 84.1076 55.692 81.9476 57.588C79.7876 59.484 76.9436 60.432 73.4156 60.432ZM90.9867 60L96.0267 34.8H100.851L111.687 53.052L109.779 52.944L113.379 34.8H119.139L114.099 60H109.311L98.4387 41.748L100.383 41.856L96.7467 60H90.9867ZM121.141 60L126.181 34.8H132.049L127.009 60H121.141ZM147.101 60.432C144.557 60.432 142.361 59.976 140.513 59.064C138.689 58.128 137.285 56.844 136.301 55.212C135.317 53.556 134.825 51.648 134.825 49.488C134.825 47.328 135.197 45.336 135.941 43.512C136.685 41.664 137.741 40.068 139.109 38.724C140.501 37.356 142.145 36.288 144.041 35.52C145.961 34.752 148.085 34.368 150.413 34.368C152.957 34.368 155.141 34.836 156.965 35.772C158.813 36.684 160.229 37.968 161.213 39.624C162.197 41.256 162.689 43.152 162.689 45.312C162.689 47.472 162.317 49.476 161.573 51.324C160.829 53.148 159.761 54.744 158.369 56.112C157.001 57.456 155.357 58.512 153.437 59.28C151.541 60.048 149.429 60.432 147.101 60.432ZM154.157 65.796C151.829 65.796 149.801 65.244 148.073 64.14C146.369 63.036 144.941 61.392 143.789 59.208L150.197 57.912C150.701 59.232 151.301 60.156 151.997 60.684C152.693 61.212 153.533 61.476 154.517 61.476C155.285 61.476 156.029 61.32 156.749 61.008C157.493 60.696 158.165 60.264 158.765 59.712L160.961 63.204C160.145 64.068 159.137 64.716 157.937 65.148C156.761 65.58 155.501 65.796 154.157 65.796ZM147.605 55.464C149.021 55.464 150.293 55.212 151.421 54.708C152.573 54.18 153.545 53.46 154.337 52.548C155.129 51.636 155.729 50.592 156.137 49.416C156.569 48.216 156.785 46.956 156.785 45.636C156.785 44.388 156.521 43.296 155.993 42.36C155.465 41.4 154.685 40.656 153.653 40.128C152.645 39.6 151.397 39.336 149.909 39.336C148.493 39.336 147.221 39.6 146.093 40.128C144.965 40.632 143.993 41.34 143.177 42.252C142.385 43.164 141.773 44.22 141.341 45.42C140.933 46.596 140.729 47.844 140.729 49.164C140.729 50.412 140.993 51.516 141.521 52.476C142.073 53.412 142.853 54.144 143.861 54.672C144.893 55.2 146.141 55.464 147.605 55.464ZM177.368 60.432C174.92 60.432 172.88 59.952 171.248 58.992C169.616 58.032 168.464 56.7 167.792 54.996C167.144 53.268 167.048 51.24 167.504 48.912L170.312 34.8H176.18L173.372 48.804C173.156 49.932 173.096 50.916 173.192 51.756C173.288 52.596 173.528 53.292 173.912 53.844C174.32 54.396 174.872 54.804 175.568 55.068C176.264 55.332 177.08 55.464 178.016 55.464C179.192 55.464 180.212 55.236 181.076 54.78C181.94 54.324 182.66 53.604 183.236 52.62C183.812 51.636 184.256 50.364 184.568 48.804L187.376 34.8H193.1L190.256 49.164C189.512 52.884 188.06 55.692 185.9 57.588C183.74 59.484 180.896 60.432 177.368 60.432ZM203.327 44.952H215.459L214.559 49.488H202.427L203.327 44.952ZM201.671 55.32H215.423L214.451 60H194.939L199.979 34.8H219.023L218.051 39.48H204.839L201.671 55.32ZM220.172 60L225.212 34.8H230.036L240.872 53.052L238.964 52.944L242.564 34.8H248.324L243.284 60H238.496L227.624 41.748L229.568 41.856L225.932 60H220.172ZM258.714 44.952H270.846L269.946 49.488H257.814L258.714 44.952ZM257.058 55.32H270.81L269.838 60H250.326L255.366 34.8H274.41L273.438 39.48H260.226L257.058 55.32ZM284.342 60.432C282.974 60.432 281.642 60.3 280.346 60.036C279.074 59.796 277.91 59.46 276.854 59.028C275.822 58.596 274.946 58.128 274.226 57.624L276.602 53.124C277.394 53.676 278.234 54.156 279.122 54.564C280.034 54.948 280.982 55.248 281.966 55.464C282.95 55.656 283.934 55.752 284.918 55.752C285.998 55.752 286.922 55.632 287.69 55.392C288.482 55.152 289.082 54.816 289.49 54.384C289.922 53.952 290.138 53.424 290.138 52.8C290.138 52.224 289.91 51.756 289.454 51.396C288.998 51.036 288.398 50.736 287.654 50.496C286.934 50.232 286.13 49.98 285.242 49.74C284.354 49.5 283.454 49.224 282.542 48.912C281.654 48.576 280.838 48.168 280.094 47.688C279.374 47.184 278.786 46.548 278.33 45.78C277.874 45.012 277.646 44.052 277.646 42.9C277.646 41.172 278.114 39.672 279.05 38.4C280.01 37.128 281.354 36.144 283.082 35.448C284.81 34.728 286.838 34.368 289.166 34.368C290.87 34.368 292.478 34.56 293.99 34.944C295.502 35.304 296.798 35.832 297.878 36.528L295.682 40.992C294.722 40.344 293.654 39.864 292.478 39.552C291.302 39.216 290.09 39.048 288.842 39.048C287.714 39.048 286.742 39.18 285.926 39.444C285.134 39.708 284.522 40.08 284.09 40.56C283.682 41.016 283.478 41.544 283.478 42.144C283.478 42.744 283.694 43.236 284.126 43.62C284.582 43.98 285.182 44.292 285.926 44.556C286.67 44.796 287.486 45.036 288.374 45.276C289.262 45.516 290.15 45.792 291.038 46.104C291.926 46.416 292.742 46.812 293.486 47.292C294.23 47.772 294.83 48.384 295.286 49.128C295.742 49.848 295.97 50.76 295.97 51.864C295.97 53.592 295.49 55.104 294.53 56.4C293.57 57.672 292.214 58.668 290.462 59.388C288.734 60.084 286.694 60.432 284.342 60.432ZM308.379 60.432C307.011 60.432 305.679 60.3 304.383 60.036C303.111 59.796 301.947 59.46 300.891 59.028C299.859 58.596 298.983 58.128 298.263 57.624L300.639 53.124C301.431 53.676 302.271 54.156 303.159 54.564C304.071 54.948 305.019 55.248 306.003 55.464C306.987 55.656 307.971 55.752 308.955 55.752C310.035 55.752 310.959 55.632 311.727 55.392C312.519 55.152 313.119 54.816 313.527 54.384C313.959 53.952 314.175 53.424 314.175 52.8C314.175 52.224 313.947 51.756 313.491 51.396C313.035 51.036 312.435 50.736 311.691 50.496C310.971 50.232 310.167 49.98 309.279 49.74C308.391 49.5 307.491 49.224 306.579 48.912C305.691 48.576 304.875 48.168 304.131 47.688C303.411 47.184 302.823 46.548 302.367 45.78C301.911 45.012 301.683 44.052 301.683 42.9C301.683 41.172 302.151 39.672 303.087 38.4C304.047 37.128 305.391 36.144 307.119 35.448C308.847 34.728 310.875 34.368 313.203 34.368C314.907 34.368 316.515 34.56 318.027 34.944C319.539 35.304 320.835 35.832 321.915 36.528L319.719 40.992C318.759 40.344 317.691 39.864 316.515 39.552C315.339 39.216 314.127 39.048 312.879 39.048C311.751 39.048 310.779 39.18 309.963 39.444C309.171 39.708 308.559 40.08 308.127 40.56C307.719 41.016 307.515 41.544 307.515 42.144C307.515 42.744 307.731 43.236 308.163 43.62C308.619 43.98 309.219 44.292 309.963 44.556C310.707 44.796 311.523 45.036 312.411 45.276C313.299 45.516 314.187 45.792 315.075 46.104C315.963 46.416 316.779 46.812 317.523 47.292C318.267 47.772 318.867 48.384 319.323 49.128C319.779 49.848 320.007 50.76 320.007 51.864C320.007 53.592 319.527 55.104 318.567 56.4C317.607 57.672 316.251 58.668 314.499 59.388C312.771 60.084 310.731 60.432 308.379 60.432Z" fill="#EA5A37"/>
<path d="M101.377 13.349C36.1138 24.5516 -46.8235 55.266 38.1703 78.8261C123.164 102.386 277.63 87.1146 339.443 71.8967C375.897 62.9217 411.08 38.4275 339.443 20.9653C267.805 3.50311 122.398 0.219436 71.301 2.76023" stroke="#EA5A37" stroke-width="3" stroke-dasharray="10 10"/>
</svg>
