<svg width="289" height="93" viewBox="0 0 289 93" fill="none" xmlns="http://www.w3.org/2000/svg">
<path d="M87.1927 60L83.9887 34.8H89.7487L92.5567 57.084H89.5327L101.449 34.8H106.849L109.549 57.084H106.669L118.513 34.8H124.309L110.989 60H104.761L102.241 40.416H104.005L93.4567 60H87.1927ZM136.355 60.432C133.811 60.432 131.615 59.976 129.767 59.064C127.943 58.128 126.539 56.844 125.555 55.212C124.571 53.556 124.079 51.648 124.079 49.488C124.079 47.328 124.451 45.336 125.195 43.512C125.939 41.664 126.995 40.068 128.363 38.724C129.755 37.356 131.399 36.288 133.295 35.52C135.215 34.752 137.339 34.368 139.667 34.368C142.211 34.368 144.395 34.836 146.219 35.772C148.067 36.684 149.483 37.968 150.467 39.624C151.451 41.256 151.943 43.152 151.943 45.312C151.943 47.472 151.571 49.476 150.827 51.324C150.083 53.148 149.015 54.744 147.623 56.112C146.255 57.456 144.611 58.512 142.691 59.28C140.795 60.048 138.683 60.432 136.355 60.432ZM136.859 55.464C138.275 55.464 139.547 55.212 140.675 54.708C141.827 54.18 142.799 53.46 143.591 52.548C144.383 51.636 144.983 50.592 145.391 49.416C145.823 48.216 146.039 46.956 146.039 45.636C146.039 44.388 145.775 43.296 145.247 42.36C144.719 41.4 143.939 40.656 142.907 40.128C141.899 39.6 140.651 39.336 139.163 39.336C137.747 39.336 136.475 39.6 135.347 40.128C134.219 40.632 133.247 41.34 132.431 42.252C131.639 43.164 131.027 44.22 130.595 45.42C130.187 46.596 129.983 47.844 129.983 49.164C129.983 50.412 130.247 51.516 130.775 52.476C131.327 53.412 132.107 54.144 133.115 54.672C134.147 55.2 135.395 55.464 136.859 55.464ZM154.742 60L159.782 34.8H170.042C173.186 34.8 175.61 35.484 177.314 36.852C179.042 38.22 179.906 40.14 179.906 42.612C179.906 44.724 179.402 46.56 178.394 48.12C177.41 49.656 175.994 50.844 174.146 51.684C172.322 52.524 170.162 52.944 167.666 52.944H159.458L162.518 50.388L160.61 60H154.742ZM170.942 60L165.794 50.856H171.914L177.098 60H170.942ZM162.374 51.072L160.358 48.3H167.882C169.826 48.3 171.326 47.868 172.382 47.004C173.462 46.116 174.002 44.832 174.002 43.152C174.002 41.928 173.582 41.028 172.742 40.452C171.926 39.852 170.774 39.552 169.286 39.552H162.194L165.254 36.708L162.374 51.072ZM188.775 54.24L189.567 47.472L203.895 34.8H210.951L197.667 46.5L193.815 49.776L188.775 54.24ZM182.295 60L187.335 34.8H193.131L188.091 60H182.295ZM199.899 60L192.699 49.02L196.839 45.096L206.451 60H199.899Z" fill="#EA5A37"/>
<path d="M76.7293 13.349C27.6528 24.5516 -34.7142 55.266 29.1993 78.8261C93.1128 102.386 209.268 87.1146 255.75 71.8967C283.163 62.9217 309.62 38.4275 255.75 20.9653C201.88 3.50311 92.5371 0.219436 54.1129 2.76023" stroke="#EA5A37" stroke-width="3" stroke-dasharray="10 10"/>
</svg>
