<svg width="534" height="62" viewBox="0 0 534 62" fill="none" xmlns="http://www.w3.org/2000/svg">
<path d="M2.99843 58.8065C-5.18104 63.8974 14.7769 -4.46647 8.88765 1.35173C2.99843 7.16994 28.8456 58.8065 22.302 58.8065C15.7584 58.8065 36.6979 1.35173 29.4999 1.35173C22.302 1.35173 51.0937 58.8065 42.2599 58.8065C33.4261 58.8065 54.0384 -1.55736 46.1861 1.35173C38.3338 4.26082 71.3788 58.8065 62.2178 58.8065C53.0568 58.8065 76.6137 1.35173 69.4158 1.35173C62.2178 1.35173 91.6639 58.8065 84.7932 58.8065C77.9224 58.8065 97.226 1.35173 91.0096 1.35173C84.7932 1.35173 117.184 55.8974 109.332 58.8065C101.479 61.7156 125.691 1.35173 117.511 1.35173C109.332 1.35173 150.229 58.8065 138.778 58.8065C127.326 58.8065 155.137 1.35173 146.957 1.35173C138.778 1.35173 177.058 61.3519 168.551 58.8065C160.044 56.261 186.873 1.35173 177.712 1.35173C168.551 1.35173 208.467 58.8065 199.633 58.8065C190.799 58.8065 219.264 1.35173 209.448 1.35173C199.633 1.35173 238.24 58.8065 231.369 58.8065C224.499 58.8065 250.019 1.35172 241.839 1.35172C233.66 1.35172 270.631 58.8065 263.433 58.8065C256.235 58.8065 286.335 1.35172 274.884 1.35172C263.433 1.35172 307.275 58.8065 296.478 58.8065C285.681 58.8065 321.344 1.35172 308.911 1.35172C296.478 1.35172 335.505 58.8065 325.035 58.8065C314.566 58.8065 342.256 1.35172 335.058 1.35172C327.86 1.35172 357.93 58.8065 350.405 58.8065C342.879 58.8065 370.569 1.35172 360.427 1.35172C350.284 1.35172 382.72 58.8065 375.195 58.8065C367.67 58.8065 392.045 1.35172 386.155 1.35172C380.266 1.35172 412.029 58.8065 406.467 58.8065C400.905 58.8065 426.973 1.35172 416.176 1.35172C405.38 1.35172 454.208 62.0792 443.738 58.8065C433.268 55.5337 466.918 -1.92101 452.194 1.35171C437.471 4.62444 496.602 58.8065 483.514 58.8065C470.427 58.8065 511.294 1.35171 498.861 1.35171C486.428 1.35171 517.623 74.443 533 58.8066" stroke="#4F4F4A"/>
</svg>
