<svg width="281" height="27" viewBox="0 0 281 27" fill="none" xmlns="http://www.w3.org/2000/svg">
<path d="M0.044 26L-1.91716 25.6078L-2.39561 28H0.044V26ZM5.084 0.799998V-1.2H3.44439L3.12284 0.407766L5.084 0.799998ZM22.544 2.888L21.2787 4.43689L21.2906 4.44658L21.3026 4.45609L22.544 2.888ZM23.66 14.192L25.3516 15.259L25.3589 15.2474L23.66 14.192ZM19.412 17.792L18.5844 15.9712L18.5754 15.9754L19.412 17.792ZM4.724 19.052L3.41952 17.536L-0.66667 21.052H4.724V19.052ZM7.82 16.388L9.78172 16.7774L10.9107 11.0901L6.51552 14.872L7.82 16.388ZM5.912 26V28H7.55402L7.87372 26.3894L5.912 26ZM7.676 17.072L6.06852 18.262L8.75073 21.8853L9.63697 17.4652L7.676 17.072ZM5.624 14.3V12.3H1.65512L4.01652 15.49L5.624 14.3ZM17.612 13.004L18.8785 14.5519L18.8822 14.5489L17.612 13.004ZM18.008 6.452L16.8232 8.0633L16.8388 8.07477L16.8546 8.08594L18.008 6.452ZM7.46 5.552L6.107 4.07911L2.32639 7.552H7.46V5.552ZM10.556 2.708L12.517 3.10118L13.7238 -2.91768L9.203 1.23511L10.556 2.708ZM2.00516 26.3922L7.04516 1.19223L3.12284 0.407766L-1.91716 25.6078L2.00516 26.3922ZM5.084 2.8H15.272V-1.2H5.084V2.8ZM15.272 2.8C18.1484 2.8 20.0575 3.43924 21.2787 4.43689L23.8093 1.33911C21.6225 -0.447248 18.6836 -1.2 15.272 -1.2V2.8ZM21.3026 4.45609C22.4889 5.39524 23.136 6.70267 23.136 8.648H27.136C27.136 5.64933 26.0551 3.11676 23.7854 1.31991L21.3026 4.45609ZM23.136 8.648C23.136 10.4377 22.7232 11.9099 21.9611 13.1366L25.3589 15.2474C26.5648 13.3061 27.136 11.0823 27.136 8.648H23.136ZM21.9684 13.125C21.2134 14.3219 20.1142 15.2759 18.5844 15.9713L20.2396 19.6127C22.4058 18.6281 24.1386 17.1821 25.3516 15.259L21.9684 13.125ZM18.5754 15.9754C17.0717 16.6679 15.1986 17.052 12.896 17.052V21.052C15.6334 21.052 18.1043 20.5961 20.2486 19.6086L18.5754 15.9754ZM12.896 17.052H4.724V21.052H12.896V17.052ZM6.02848 20.568L9.12448 17.904L6.51552 14.872L3.41952 17.536L6.02848 20.568ZM5.85828 15.9986L3.95028 25.6106L7.87372 26.3894L9.78172 16.7774L5.85828 15.9986ZM5.912 24H0.044V28H5.912V24ZM9.28348 15.882L7.23148 13.11L4.01652 15.49L6.06852 18.262L9.28348 15.882ZM5.624 16.3H13.148V12.3H5.624V16.3ZM13.148 16.3C15.3446 16.3 17.3442 15.8072 18.8785 14.5519L16.3455 11.4561C15.7678 11.9288 14.7914 12.3 13.148 12.3V16.3ZM18.8822 14.5489C20.5182 13.2037 21.232 11.2969 21.232 9.152H17.232C17.232 10.3671 16.8658 11.0283 16.3418 11.4591L18.8822 14.5489ZM21.232 9.152C21.232 7.44356 20.6304 5.85501 19.1614 4.81806L16.8546 8.08594C17.0176 8.20098 17.232 8.41244 17.232 9.152H21.232ZM19.1928 4.8407C17.906 3.89457 16.2751 3.552 14.552 3.552V7.552C15.8049 7.552 16.478 7.80943 16.8232 8.0633L19.1928 4.8407ZM14.552 3.552H7.46V7.552H14.552V3.552ZM8.813 7.02489L11.909 4.18089L9.203 1.23511L6.107 4.07911L8.813 7.02489ZM8.59503 2.31482L5.71503 16.6788L9.63697 17.4652L12.517 3.10118L8.59503 2.31482ZM22.562 26L20.8818 24.9151L18.8899 28H22.562V26ZM38.834 0.799998V-1.2H37.7447L37.1538 -0.284911L38.834 0.799998ZM44.63 0.799998L46.5722 0.322765L46.1981 -1.2H44.63V0.799998ZM50.822 26V28H53.3729L52.7642 25.5228L50.822 26ZM44.99 26L43.0364 26.4285L43.3812 28H44.99V26ZM40.094 3.68V1.68H37.6077L38.1404 4.10852L40.094 3.68ZM42.398 3.68L44.1057 4.72112L45.9598 1.68H42.398V3.68ZM28.79 26V28H29.913L30.4977 27.0411L28.79 26ZM29.294 20.6L27.5317 19.6544L25.9511 22.6H29.294V20.6ZM31.67 16.172V14.172H30.4734L29.9077 15.2264L31.67 16.172ZM44.666 16.172L46.6426 15.8667L46.3808 14.172H44.666V16.172ZM45.35 20.6V22.6H47.6827L47.3266 20.2947L45.35 20.6ZM24.2422 27.0849L40.5142 1.88491L37.1538 -0.284911L20.8818 24.9151L24.2422 27.0849ZM38.834 2.8H44.63V-1.2H38.834V2.8ZM42.6878 1.27723L48.8798 26.4772L52.7642 25.5228L46.5722 0.322765L42.6878 1.27723ZM50.822 24H44.99V28H50.822V24ZM46.9436 25.5715L42.0476 3.25148L38.1404 4.10852L43.0364 26.4285L46.9436 25.5715ZM40.094 5.68H42.398V1.68H40.094V5.68ZM40.6903 2.63888L27.0823 24.9589L30.4977 27.0411L44.1057 4.72112L40.6903 2.63888ZM28.79 24H22.562V28H28.79V24ZM31.0563 21.5456L33.4323 17.1176L29.9077 15.2264L27.5317 19.6544L31.0563 21.5456ZM31.67 18.172H44.666V14.172H31.67V18.172ZM42.6894 16.4773L43.3734 20.9053L47.3266 20.2947L46.6426 15.8667L42.6894 16.4773ZM45.35 18.6H29.294V22.6H45.35V18.6ZM54.5165 26L52.5553 25.6078L52.0769 28H54.5165V26ZM59.5565 0.799998V-1.2H57.9169L57.5953 0.407766L59.5565 0.799998ZM65.4245 0.799998L67.3854 1.19356L67.8658 -1.2H65.4245V0.799998ZM61.3205 21.248L59.3596 20.8544L58.8792 23.248H61.3205V21.248ZM73.9565 21.248L75.9159 21.6488L76.407 19.248H73.9565V21.248ZM72.9845 26V28H74.6168L74.9439 26.4008L72.9845 26ZM56.4777 26.3922L61.5177 1.19223L57.5953 0.407766L52.5553 25.6078L56.4777 26.3922ZM59.5565 2.8H65.4245V-1.2H59.5565V2.8ZM63.4636 0.406438L59.3596 20.8544L63.2814 21.6416L67.3854 1.19356L63.4636 0.406438ZM61.3205 23.248H73.9565V19.248H61.3205V23.248ZM71.9971 20.8472L71.0251 25.5992L74.9439 26.4008L75.9159 21.6488L71.9971 20.8472ZM72.9845 24H54.5165V28H72.9845V24ZM77.3231 26L75.3619 25.6078L74.8835 28H77.3231V26ZM82.3631 0.799998V-1.2H80.7234L80.4019 0.407766L82.3631 0.799998ZM88.2311 0.799998L90.1922 1.19223L90.6707 -1.2H88.2311V0.799998ZM83.1911 26V28H84.8307L85.1522 26.3922L83.1911 26ZM79.2842 26.3922L84.3242 1.19223L80.4019 0.407766L75.3619 25.6078L79.2842 26.3922ZM82.3631 2.8H88.2311V-1.2H82.3631V2.8ZM86.2699 0.407766L81.2299 25.6078L85.1522 26.3922L90.1922 1.19223L86.2699 0.407766ZM83.1911 24H77.3231V28H83.1911V24ZM90.2156 26L88.2544 25.6078L87.776 28H90.2156V26ZM95.2556 0.799998V-1.2H93.616L93.2944 0.407766L95.2556 0.799998ZM100.08 0.799998L101.799 -0.221001L101.218 -1.2H100.08V0.799998ZM110.916 19.052L110.803 21.0488L114.553 21.2611L112.635 18.031L110.916 19.052ZM109.008 18.944L107.046 18.5548L106.598 20.8108L108.895 20.9408L109.008 18.944ZM112.608 0.799998V-1.2H110.965L110.646 0.410761L112.608 0.799998ZM118.368 0.799998L120.329 1.19223L120.807 -1.2H118.368V0.799998ZM113.328 26V28H114.967L115.289 26.3922L113.328 26ZM108.54 26L106.821 27.0235L107.403 28H108.54V26ZM97.6676 7.748L97.7785 5.75108L94.026 5.5426L95.9493 8.7715L97.6676 7.748ZM99.6116 7.856L101.573 8.24898L102.026 5.98704L99.7225 5.85908L99.6116 7.856ZM95.9756 26V28H97.6145L97.9366 26.393L95.9756 26ZM92.1767 26.3922L97.2167 1.19223L93.2944 0.407766L88.2544 25.6078L92.1767 26.3922ZM95.2556 2.8H100.08V-1.2H95.2556V2.8ZM98.3598 1.821L109.196 20.073L112.635 18.031L101.799 -0.221001L98.3598 1.821ZM111.029 17.0552L109.121 16.9472L108.895 20.9408L110.803 21.0488L111.029 17.0552ZM110.969 19.3332L114.569 1.18924L110.646 0.410761L107.046 18.5548L110.969 19.3332ZM112.608 2.8H118.368V-1.2H112.608V2.8ZM116.406 0.407766L111.366 25.6078L115.289 26.3922L120.329 1.19223L116.406 0.407766ZM113.328 24H108.54V28H113.328V24ZM110.258 24.9765L99.3858 6.72449L95.9493 8.7715L106.821 27.0235L110.258 24.9765ZM97.5566 9.74492L99.5006 9.85292L99.7225 5.85908L97.7785 5.75108L97.5566 9.74492ZM97.6506 7.46302L94.0145 25.607L97.9366 26.393L101.573 8.24898L97.6506 7.46302ZM95.9756 24H90.2156V28H95.9756V24ZM126.994 25.064L126.09 26.8482L126.104 26.8552L126.118 26.862L126.994 25.064ZM122.674 21.212L120.965 22.2519L120.974 22.2665L120.983 22.2809L122.674 21.212ZM122.278 9.512L120.431 8.74447L120.427 8.75475L120.422 8.76507L122.278 9.512ZM125.518 4.724L126.907 6.1628L126.913 6.15666L126.92 6.15046L125.518 4.724ZM130.522 1.52L131.257 3.3801L130.522 1.52ZM143.23 1.52L142.427 3.35174L142.442 3.35833L142.457 3.36468L143.23 1.52ZM147.514 4.76L148.773 6.31386L150.282 5.09122L149.104 3.5471L147.514 4.76ZM143.338 8.144L141.801 9.42437L143.064 10.9399L144.597 9.69786L143.338 8.144ZM140.458 5.984L139.701 7.83509L139.708 7.83805L139.715 7.84095L140.458 5.984ZM132.718 6.092L133.474 7.9437L133.483 7.93988L133.492 7.93596L132.718 6.092ZM129.694 8.144L131.147 9.5184L129.694 8.144ZM127.75 11.276L129.615 11.9991L129.619 11.9864L127.75 11.276ZM127.894 18.476L126.16 19.4729L126.165 19.4825L126.171 19.492L127.894 18.476ZM130.342 20.672L129.463 22.4688L129.471 22.4726L129.479 22.4763L130.342 20.672ZM137.83 20.852L137.136 18.976H137.136L137.83 20.852ZM141.034 18.944L142.82 18.0438L141.684 15.7911L139.75 17.4105L141.034 18.944ZM143.266 23.372L144.49 24.9539L145.794 23.9447L145.052 22.4718L143.266 23.372ZM138.838 25.64L138.238 23.732L138.23 23.7345L138.838 25.64ZM138.154 22.472L136.192 22.0841L135.796 24.0876L137.807 24.4417L138.154 22.472ZM140.026 13.004V11.004H138.383L138.064 12.6161L140.026 13.004ZM145.354 13.004L147.314 13.3988L147.797 11.004H145.354V13.004ZM143.266 23.372L142.919 25.3417L144.841 25.6801L145.226 23.7668L143.266 23.372ZM133.618 24.432C131.311 24.432 129.415 24.0189 127.87 23.266L126.118 26.862C128.316 27.9331 130.836 28.432 133.618 28.432V24.432ZM127.897 23.2798C126.347 22.4946 125.189 21.4478 124.364 20.1431L120.983 22.2809C122.222 24.2402 123.944 25.7614 126.09 26.8482L127.897 23.2798ZM124.382 20.1721C123.586 18.8643 123.162 17.3243 123.162 15.488H119.162C119.162 17.9717 119.745 20.2477 120.965 22.2519L124.382 20.1721ZM123.162 15.488C123.162 13.5893 123.491 11.8528 124.133 10.2589L120.422 8.76507C119.576 10.8672 119.162 13.1147 119.162 15.488H123.162ZM124.125 10.2795C124.791 8.67538 125.719 7.31016 126.907 6.1628L124.129 3.2852C122.533 4.82584 121.3 6.65262 120.431 8.74447L124.125 10.2795ZM126.92 6.15046C128.107 4.98325 129.544 4.05675 131.257 3.3801L129.787 -0.340104C127.612 0.519246 125.712 1.72875 124.116 3.29754L126.92 6.15046ZM131.257 3.3801C132.937 2.7163 134.843 2.368 137.002 2.368V-1.632C134.408 -1.632 131.995 -1.2123 129.787 -0.340104L131.257 3.3801ZM137.002 2.368C139.193 2.368 140.984 2.71912 142.427 3.35174L144.033 -0.311739C141.972 -1.21513 139.61 -1.632 137.002 -1.632V2.368ZM142.457 3.36468C143.937 3.98466 145.073 4.85791 145.924 5.9729L149.104 3.5471C147.794 1.83009 146.075 0.543337 144.003 -0.324677L142.457 3.36468ZM146.255 3.20613L142.079 6.59013L144.597 9.69786L148.773 6.31386L146.255 3.20613ZM144.874 6.86363C143.849 5.63365 142.627 4.69745 141.201 4.12704L139.715 7.84095C140.449 8.13455 141.146 8.63834 141.801 9.42437L144.874 6.86363ZM141.215 4.1329C139.868 3.58198 138.365 3.336 136.75 3.336V7.336C137.967 7.336 138.935 7.52201 139.701 7.83509L141.215 4.1329ZM136.75 3.336C135.034 3.336 133.421 3.62734 131.943 4.24803L133.492 7.93596C134.414 7.54866 135.49 7.336 136.75 7.336V3.336ZM131.962 4.2403C130.533 4.82363 129.284 5.66653 128.241 6.7696L131.147 9.5184C131.783 8.84546 132.551 8.32037 133.474 7.9437L131.962 4.2403ZM128.241 6.7696C127.21 7.85882 126.425 9.13152 125.88 10.5656L129.619 11.9864C129.986 11.0205 130.497 10.2052 131.147 9.5184L128.241 6.7696ZM125.885 10.5529C125.331 11.9823 125.066 13.5143 125.066 15.128H129.066C129.066 13.9577 129.257 12.9217 129.615 11.9991L125.885 10.5529ZM125.066 15.128C125.066 16.6971 125.409 18.167 126.16 19.4729L129.628 17.4791C129.275 16.865 129.066 16.1029 129.066 15.128H125.066ZM126.171 19.492C126.943 20.8007 128.07 21.7878 129.463 22.4688L131.22 18.8752C130.453 18.5002 129.949 18.0233 129.617 17.46L126.171 19.492ZM129.479 22.4763C130.919 23.1652 132.576 23.464 134.374 23.464V19.464C133.004 19.464 131.972 19.2348 131.205 18.8677L129.479 22.4763ZM134.374 23.464C135.806 23.464 137.193 23.2196 138.523 22.728L137.136 18.976C136.259 19.3004 135.342 19.464 134.374 19.464V23.464ZM138.523 22.728C139.871 22.23 141.135 21.4679 142.318 20.4775L139.75 17.4105C138.869 18.1481 137.997 18.658 137.136 18.976L138.523 22.728ZM139.248 19.8442L141.48 24.2722L145.052 22.4718L142.82 18.0438L139.248 19.8442ZM142.042 21.7901C140.974 22.6162 139.714 23.2682 138.238 23.732L139.437 27.548C141.322 26.9558 143.013 26.0958 144.49 24.9539L142.042 21.7901ZM138.23 23.7345C136.78 24.1968 135.246 24.432 133.618 24.432V28.432C135.638 28.432 137.583 28.1392 139.445 27.5455L138.23 23.7345ZM140.116 22.8599L141.988 13.3919L138.064 12.6161L136.192 22.0841L140.116 22.8599ZM140.026 15.004H145.354V11.004H140.026V15.004ZM143.393 12.6091L141.305 22.9771L145.226 23.7668L147.314 13.3988L143.393 12.6091ZM143.613 21.4023L138.501 20.5023L137.807 24.4417L142.919 25.3417L143.613 21.4023ZM157.611 10.952V8.952H155.969L155.649 10.5628L157.611 10.952ZM169.743 10.952L171.705 11.3412L172.179 8.952H169.743V10.952ZM168.843 15.488V17.488H170.485L170.805 15.8772L168.843 15.488ZM156.711 15.488L154.749 15.0988L154.275 17.488H156.711V15.488ZM155.955 21.32L153.994 20.9278L153.516 23.32H155.955V21.32ZM169.707 21.32L171.665 21.7267L172.165 19.32H169.707V21.32ZM168.735 26V28H170.363L170.693 26.4067L168.735 26ZM149.223 26L147.262 25.6078L146.784 28H149.223V26ZM154.263 0.799998V-1.2H152.624L152.302 0.407766L154.263 0.799998ZM173.307 0.799998L175.265 1.2067L175.765 -1.2H173.307V0.799998ZM172.335 5.48V7.48H173.963L174.293 5.8867L172.335 5.48ZM159.123 5.48V3.48H157.484L157.162 5.08777L159.123 5.48ZM157.611 12.952H169.743V8.952H157.611V12.952ZM167.781 10.5628L166.881 15.0988L170.805 15.8772L171.705 11.3412L167.781 10.5628ZM168.843 13.488H156.711V17.488H168.843V13.488ZM158.673 15.8772L159.573 11.3412L155.649 10.5628L154.749 15.0988L158.673 15.8772ZM155.955 23.32H169.707V19.32H155.955V23.32ZM167.749 20.9133L166.777 25.5933L170.693 26.4067L171.665 21.7267L167.749 20.9133ZM168.735 24H149.223V28H168.735V24ZM151.184 26.3922L156.224 1.19223L152.302 0.407766L147.262 25.6078L151.184 26.3922ZM154.263 2.8H173.307V-1.2H154.263V2.8ZM171.349 0.393292L170.377 5.07329L174.293 5.8867L175.265 1.2067L171.349 0.393292ZM172.335 3.48H159.123V7.48H172.335V3.48ZM157.162 5.08777L153.994 20.9278L157.916 21.7122L161.084 5.87223L157.162 5.08777ZM174.456 26L172.494 25.6078L172.016 28H174.456V26ZM179.496 0.799998V-1.2H177.856L177.534 0.407766L179.496 0.799998ZM184.32 0.799998L186.039 -0.221001L185.458 -1.2H184.32V0.799998ZM195.156 19.052L195.043 21.0488L198.793 21.2611L196.875 18.031L195.156 19.052ZM193.248 18.944L191.286 18.5548L190.838 20.8108L193.135 20.9408L193.248 18.944ZM196.848 0.799998V-1.2H195.205L194.886 0.410761L196.848 0.799998ZM202.608 0.799998L204.569 1.19223L205.047 -1.2H202.608V0.799998ZM197.568 26V28H199.207L199.529 26.3922L197.568 26ZM192.78 26L191.061 27.0235L191.643 28H192.78V26ZM181.908 7.748L182.019 5.75108L178.266 5.5426L180.189 8.7715L181.908 7.748ZM183.852 7.856L185.813 8.24898L186.266 5.98704L183.963 5.85908L183.852 7.856ZM180.216 26V28H181.855L182.177 26.393L180.216 26ZM176.417 26.3922L181.457 1.19223L177.534 0.407766L172.494 25.6078L176.417 26.3922ZM179.496 2.8H184.32V-1.2H179.496V2.8ZM182.6 1.821L193.436 20.073L196.875 18.031L186.039 -0.221001L182.6 1.821ZM195.269 17.0552L193.361 16.9472L193.135 20.9408L195.043 21.0488L195.269 17.0552ZM195.209 19.3332L198.809 1.18924L194.886 0.410761L191.286 18.5548L195.209 19.3332ZM196.848 2.8H202.608V-1.2H196.848V2.8ZM200.646 0.407766L195.606 25.6078L199.529 26.3922L204.569 1.19223L200.646 0.407766ZM197.568 24H192.78V28H197.568V24ZM194.498 24.9765L183.626 6.72449L180.189 8.7715L191.061 27.0235L194.498 24.9765ZM181.797 9.74492L183.741 9.85292L183.963 5.85908L182.019 5.75108L181.797 9.74492ZM181.891 7.46302L178.255 25.607L182.177 26.393L185.813 8.24898L181.891 7.46302ZM180.216 24H174.456V28H180.216V24ZM212.998 10.952V8.952H211.356L211.036 10.5628L212.998 10.952ZM225.13 10.952L227.092 11.3412L227.566 8.952H225.13V10.952ZM224.23 15.488V17.488H225.872L226.192 15.8772L224.23 15.488ZM212.098 15.488L210.136 15.0988L209.662 17.488H212.098V15.488ZM211.342 21.32L209.381 20.9278L208.902 23.32H211.342V21.32ZM225.094 21.32L227.052 21.7267L227.552 19.32H225.094V21.32ZM224.122 26V28H225.749L226.08 26.4067L224.122 26ZM204.61 26L202.649 25.6078L202.17 28H204.61V26ZM209.65 0.799998V-1.2H208.01L207.689 0.407766L209.65 0.799998ZM228.694 0.799998L230.652 1.2067L231.152 -1.2H228.694V0.799998ZM227.722 5.48V7.48H229.349L229.68 5.8867L227.722 5.48ZM214.51 5.48V3.48H212.87L212.549 5.08777L214.51 5.48ZM212.998 12.952H225.13V8.952H212.998V12.952ZM223.168 10.5628L222.268 15.0988L226.192 15.8772L227.092 11.3412L223.168 10.5628ZM224.23 13.488H212.098V17.488H224.23V13.488ZM214.06 15.8772L214.96 11.3412L211.036 10.5628L210.136 15.0988L214.06 15.8772ZM211.342 23.32H225.094V19.32H211.342V23.32ZM223.136 20.9133L222.164 25.5933L226.08 26.4067L227.052 21.7267L223.136 20.9133ZM224.122 24H204.61V28H224.122V24ZM206.571 26.3922L211.611 1.19223L207.689 0.407766L202.649 25.6078L206.571 26.3922ZM209.65 2.8H228.694V-1.2H209.65V2.8ZM226.736 0.393292L225.764 5.07329L229.68 5.8867L230.652 1.2067L226.736 0.393292ZM227.722 3.48H214.51V7.48H227.722V3.48ZM212.549 5.08777L209.381 20.9278L213.303 21.7122L216.471 5.87223L212.549 5.08777ZM234.63 26.036L235.029 24.0762L235.015 24.0734L235.001 24.0707L234.63 26.036ZM231.138 25.028L230.366 26.8729L230.373 26.876L230.381 26.8791L231.138 25.028ZM228.51 23.624L226.742 22.6902L225.918 24.2506L227.363 25.2625L228.51 23.624ZM230.886 19.124L232.03 17.4832L230.174 16.1897L229.118 18.1902L230.886 19.124ZM233.406 20.564L232.571 22.3814L232.6 22.3948L232.63 22.4073L233.406 20.564ZM236.25 21.464L235.821 23.4175L235.844 23.4225L235.867 23.427L236.25 21.464ZM241.974 21.392L241.394 19.478L241.386 19.4805L241.378 19.483L241.974 21.392ZM243.774 20.384L242.36 18.9698L242.34 18.99L242.32 19.0108L243.774 20.384ZM241.938 16.496L241.25 18.3738L241.287 18.3873L241.324 18.3994L241.938 16.496ZM239.526 15.74L240.048 13.8093L239.526 15.74ZM236.826 14.912L236.118 16.7826L236.148 16.7939L236.179 16.8043L236.826 14.912ZM234.378 13.688L233.231 15.3265L233.262 15.3481L233.294 15.3686L234.378 13.688ZM232.614 11.78L234.334 10.7589L232.614 11.78ZM233.334 4.4L231.738 3.19519L231.73 3.20487L231.723 3.21464L233.334 4.4ZM237.366 1.448L238.113 3.30317L238.124 3.29873L238.135 3.29415L237.366 1.448ZM248.274 0.943998L247.782 2.88246L247.796 2.88614L247.811 2.88961L248.274 0.943998ZM252.162 2.528L253.957 3.41083L254.743 1.81205L253.246 0.846858L252.162 2.528ZM249.966 6.992L248.847 8.6497L250.748 9.93294L251.761 7.87483L249.966 6.992ZM246.762 5.552L246.213 7.47505L246.231 7.48026L246.249 7.48512L246.762 5.552ZM240.21 5.444L239.594 3.54111L239.586 3.54383L239.578 3.54663L240.21 5.444ZM238.374 6.56L236.888 5.22206L236.884 5.22641L238.374 6.56ZM238.41 9.62L237.081 11.1148L237.125 11.1536L237.171 11.1898L238.41 9.62ZM240.21 10.556L239.541 12.4409L239.569 12.4505L239.596 12.4594L240.21 10.556ZM242.658 11.276L242.136 13.2067L242.658 11.276ZM245.322 12.104L244.659 13.9909V13.9909L245.322 12.104ZM247.77 13.292L246.686 14.9726V14.9726L247.77 13.292ZM249.57 15.128L247.865 16.1731L247.873 16.1857L247.88 16.1981L249.57 15.128ZM248.814 22.4L250.411 23.6048L250.416 23.5977L250.421 23.5905L248.814 22.4ZM244.746 25.388L245.493 27.2432L245.506 27.2379L244.746 25.388ZM238.626 24.432C237.388 24.432 236.19 24.3126 235.029 24.0762L234.231 27.9958C235.663 28.2874 237.129 28.432 238.626 28.432V24.432ZM235.001 24.0707C233.844 23.8524 232.811 23.5516 231.895 23.1769L230.381 26.8791C231.577 27.3684 232.872 27.7396 234.259 28.0013L235.001 24.0707ZM231.91 23.1831C230.976 22.7922 230.233 22.3889 229.657 21.9855L227.363 25.2625C228.227 25.8671 229.236 26.3998 230.366 26.8729L231.91 23.1831ZM230.279 24.5578L232.655 20.0578L229.118 18.1902L226.742 22.6902L230.279 24.5578ZM229.743 20.7648C230.633 21.3855 231.577 21.9244 232.571 22.3814L234.241 18.7466C233.46 18.3876 232.723 17.9665 232.03 17.4832L229.743 20.7648ZM232.63 22.4073C233.656 22.8393 234.721 23.1759 235.821 23.4175L236.679 19.5105C235.812 19.3201 234.98 19.0567 234.182 18.7207L232.63 22.4073ZM235.867 23.427C236.975 23.6431 238.087 23.752 239.202 23.752V19.752C238.349 19.752 237.493 19.6689 236.633 19.501L235.867 23.427ZM239.202 23.752C240.42 23.752 241.556 23.6179 242.571 23.301L241.378 19.483C240.856 19.6461 240.144 19.752 239.202 19.752V23.752ZM242.554 23.306C243.555 23.0027 244.505 22.5229 245.228 21.7572L242.32 19.0108C242.227 19.1091 241.977 19.3013 241.394 19.478L242.554 23.306ZM245.188 21.7982C246.004 20.9822 246.422 19.9417 246.422 18.8H242.422C242.422 18.8768 242.41 18.9048 242.409 18.9067C242.409 18.9079 242.402 18.9281 242.36 18.9698L245.188 21.7982ZM246.422 18.8C246.422 17.6057 245.909 16.5617 244.977 15.8262L242.499 18.9658C242.511 18.9752 242.507 18.9741 242.495 18.96C242.483 18.9454 242.468 18.9226 242.453 18.8929C242.439 18.8632 242.43 18.8358 242.425 18.815C242.421 18.7949 242.422 18.7884 242.422 18.8H246.422ZM244.977 15.8262C244.282 15.2774 243.449 14.882 242.552 14.5926L241.324 18.3994C241.915 18.59 242.282 18.7946 242.499 18.9658L244.977 15.8262ZM242.627 14.6182C241.842 14.3307 240.982 14.0616 240.048 13.8093L239.004 17.6707C239.847 17.8984 240.594 18.1333 241.25 18.3738L242.627 14.6182ZM240.048 13.8093C239.204 13.5812 238.346 13.3182 237.473 13.0197L236.179 16.8043C237.13 17.1298 238.072 17.4188 239.004 17.6707L240.048 13.8093ZM237.534 13.0414C236.768 12.7517 236.08 12.4057 235.462 12.0074L233.294 15.3686C234.165 15.9303 235.108 16.4003 236.118 16.7826L237.534 13.0414ZM235.525 12.0495C235.042 11.7111 234.647 11.2869 234.334 10.7589L230.894 12.8011C231.493 13.8091 232.275 14.6569 233.231 15.3265L235.525 12.0495ZM234.334 10.7589C234.107 10.3773 233.93 9.79472 233.93 8.9H229.93C229.93 10.3093 230.209 11.6467 230.894 12.8011L234.334 10.7589ZM233.93 8.9C233.93 7.55614 234.286 6.48122 234.945 5.58536L231.723 3.21464C230.51 4.86278 229.93 6.78786 229.93 8.9H233.93ZM234.931 5.60481C235.637 4.66856 236.665 3.88671 238.113 3.30317L236.619 -0.407173C234.612 0.401282 232.951 1.58744 231.738 3.19519L234.931 5.60481ZM238.135 3.29415C239.568 2.69719 241.324 2.368 243.45 2.368V-1.632C240.92 -1.632 238.62 -1.24119 236.597 -0.398155L238.135 3.29415ZM243.45 2.368C245.003 2.368 246.445 2.5429 247.782 2.88246L248.766 -0.994463C247.079 -1.4229 245.305 -1.632 243.45 -1.632V2.368ZM247.811 2.88961C249.147 3.20783 250.224 3.65841 251.079 4.20914L253.246 0.846858C251.94 0.00559139 250.425 -0.599835 248.737 -1.00161L247.811 2.88961ZM250.368 1.64517L248.172 6.10917L251.761 7.87483L253.957 3.41083L250.368 1.64517ZM251.085 5.3343C249.931 4.55507 248.656 3.98526 247.275 3.61888L246.249 7.48512C247.22 7.74273 248.082 8.13293 248.847 8.6497L251.085 5.3343ZM247.312 3.62895C245.953 3.24086 244.556 3.048 243.126 3.048V7.048C244.192 7.048 245.219 7.19114 246.213 7.47505L247.312 3.62895ZM243.126 3.048C241.851 3.048 240.661 3.19614 239.594 3.54111L240.826 7.34689C241.391 7.16386 242.145 7.048 243.126 7.048V3.048ZM239.578 3.54663C238.551 3.88881 237.609 4.42017 236.888 5.22207L239.861 7.89793C240.003 7.73983 240.285 7.52719 240.843 7.34136L239.578 3.54663ZM236.884 5.22641C236.155 6.04111 235.762 7.04128 235.762 8.144H239.762C239.762 8.04671 239.778 7.99088 239.865 7.89359L236.884 5.22641ZM235.762 8.144C235.762 9.29053 236.204 10.3351 237.081 11.1148L239.739 8.12518C239.728 8.11551 239.728 8.11414 239.735 8.12235C239.737 8.12623 239.741 8.13154 239.745 8.13817C239.749 8.1448 239.752 8.15186 239.755 8.15902C239.762 8.17417 239.764 8.18431 239.765 8.18566C239.765 8.18646 239.762 8.17375 239.762 8.144H235.762ZM237.171 11.1898C237.848 11.7241 238.66 12.1281 239.541 12.4409L240.879 8.67114C240.272 8.45585 239.885 8.23586 239.649 8.05023L237.171 11.1898ZM239.596 12.4594C240.375 12.7108 241.223 12.9598 242.136 13.2067L243.18 9.34527C242.318 9.11222 241.533 8.88121 240.824 8.65258L239.596 12.4594ZM242.136 13.2067C242.976 13.4336 243.817 13.6949 244.659 13.9909L245.985 10.2171C245.052 9.88912 244.117 9.59842 243.18 9.34527L242.136 13.2067ZM244.659 13.9909C245.408 14.2542 246.082 14.5828 246.686 14.9726L248.854 11.6114C247.971 11.0412 247.012 10.5778 245.985 10.2171L244.659 13.9909ZM246.686 14.9726C247.182 15.2925 247.568 15.6887 247.865 16.1731L251.275 14.0829C250.66 13.0793 249.847 12.2515 248.854 11.6114L246.686 14.9726ZM247.88 16.1981C248.082 16.5161 248.254 17.0287 248.254 17.864H252.254C252.254 16.4913 251.97 15.1799 251.26 14.0579L247.88 16.1981ZM248.254 17.864C248.254 19.1958 247.893 20.2832 247.207 21.2095L250.421 23.5905C251.655 21.9248 252.254 19.9882 252.254 17.864H248.254ZM247.218 21.1952C246.511 22.1313 245.469 22.9285 243.986 23.5381L245.506 27.2379C247.527 26.4075 249.197 25.2127 250.411 23.6048L247.218 21.1952ZM243.999 23.5328C242.562 24.1117 240.787 24.432 238.626 24.432V28.432C241.17 28.432 243.474 28.0563 245.493 27.2432L243.999 23.5328ZM259.616 26L257.654 25.6117L257.181 28H259.616V26ZM261.668 15.632L263.637 15.2844L259.706 15.2437L261.668 15.632ZM262.316 19.304L260.459 20.048L264.285 18.9564L262.316 19.304ZM254.9 0.799998V-1.2H251.944L253.043 1.54402L254.9 0.799998ZM260.732 0.799998L262.589 0.058032L262.087 -1.2H260.732V0.799998ZM266.384 14.948L266.404 16.9479L269.325 16.9181L268.241 14.206L266.384 14.948ZM262.856 14.984L261.298 13.7303L258.645 17.0271L262.876 16.9839L262.856 14.984ZM274.268 0.799998V-1.2H273.31L272.71 -0.453728L274.268 0.799998ZM280.28 0.799998L281.845 2.04568L284.428 -1.2H280.28V0.799998ZM265.52 19.34L263.756 18.3979L267.085 20.5857L265.52 19.34ZM267.5 15.632L269.462 16.0203L265.736 14.6899L267.5 15.632ZM265.448 26V28H267.091L267.41 26.3883L265.448 26ZM261.578 26.3883L263.63 16.0203L259.706 15.2437L257.654 25.6117L261.578 26.3883ZM259.698 15.9796L260.346 19.6516L264.285 18.9564L263.637 15.2844L259.698 15.9796ZM264.172 18.56L256.756 0.0559721L253.043 1.54402L260.459 20.048L264.172 18.56ZM254.9 2.8H260.732V-1.2H254.9V2.8ZM258.875 1.54196L264.527 15.69L268.241 14.206L262.589 0.058032L258.875 1.54196ZM266.363 12.9481L262.835 12.9841L262.876 16.9839L266.404 16.9479L266.363 12.9481ZM264.414 16.2377L275.826 2.05372L272.71 -0.453728L261.298 13.7303L264.414 16.2377ZM274.268 2.8H280.28V-1.2H274.268V2.8ZM278.715 -0.445683L263.955 18.0943L267.085 20.5857L281.845 2.04568L278.715 -0.445683ZM267.284 20.2821L269.264 16.5741L265.736 14.6899L263.756 18.3979L267.284 20.2821ZM265.538 15.2437L263.486 25.6117L267.41 26.3883L269.462 16.0203L265.538 15.2437ZM265.448 24H259.616V28H265.448V24Z" fill="#EA5A37"/>
</svg>
