<svg width="478" height="125" viewBox="0 0 478 125" fill="none" xmlns="http://www.w3.org/2000/svg">
<path d="M181.481 45.4L174.809 79H167.561L171.545 58.984L158.681 75.448H155.177L148.265 58.744L144.233 79H136.985L143.705 45.4H150.041L158.441 66.328L174.809 45.4H181.481ZM197.316 51.64L195.876 58.936H211.476L210.276 64.984H194.628L193.092 72.76H211.428L210.132 79H184.116L190.836 45.4H216.228L214.932 51.64H197.316ZM248.573 72.664H253.325L250.637 85.96H243.437L244.829 79H221.117L219.725 85.96H212.525L215.213 72.664H216.221C218.301 72.6 220.093 71.064 221.597 68.056C223.133 65.048 224.525 60.904 225.773 55.624L228.221 45.4H254.045L248.573 72.664ZM232.349 56.92C231.389 60.952 230.445 64.264 229.517 66.856C228.589 69.416 227.501 71.352 226.253 72.664H240.893L245.069 51.736H233.597L232.349 56.92ZM264.705 45.4H272.529L265.809 79H257.985L264.705 45.4ZM299.415 71.8H283.767L279.399 79H271.095L292.839 45.4H300.519L308.775 79H300.999L299.415 71.8ZM298.119 65.896L295.287 52.936L287.367 65.896H298.119Z" fill="#EA5A37"/>
<path d="M126.549 17.4296C44.7547 32.6601 -59.1904 74.4179 47.3321 106.449C153.855 138.48 347.447 117.718 424.916 97.0281C470.605 84.8262 514.7 51.525 424.916 27.7843C335.133 4.04355 152.895 -0.420767 88.8549 3.03357" stroke="#EA5A37" stroke-width="3" stroke-dasharray="10 10"/>
</svg>
