<svg width="796" height="58" viewBox="0 0 796 58" fill="none" xmlns="http://www.w3.org/2000/svg">
<path d="M41.6363 41.96H21.7163L20.1163 57H0.83625L6.75625 0.999996H45.9563C56.3563 0.999996 63.7696 2.70666 68.1963 6.12C72.6763 9.48 74.5696 14.6 73.8763 21.48C73.1829 28.3067 70.2229 33.4267 64.9963 36.84C59.8229 40.2533 52.0363 41.96 41.6363 41.96ZM44.5163 13.88H24.6763L23.0763 29H42.9163C46.3296 29 49.0763 28.36 51.1563 27.08C53.2363 25.7467 54.4096 23.88 54.6763 21.48C54.8896 18.9733 54.1163 17.08 52.3563 15.8C50.5963 14.52 47.9829 13.88 44.5163 13.88ZM91.7206 0.999996H119.161L139.641 57H119.001L115.721 47.64H85.3206L80.1206 57H59.5606L91.7206 0.999996ZM103.801 14.12L91.8006 35.48H111.721L104.201 14.12H103.801ZM146.189 57L152.109 0.999996H171.389L166.829 44.12H212.269L210.909 57H146.189ZM237.091 57H217.811L223.731 0.999996H243.011L237.091 57ZM304.283 32.12L307.563 0.999996H326.043L320.123 57H301.083L272.843 26.04H272.523L269.243 57H250.683L256.603 0.999996H275.403L303.963 32.12H304.283ZM368.911 25.8H404.751L402.031 51.88C398.831 53.4267 394.165 54.7867 388.031 55.96C381.738 57.1867 376.405 57.8 372.031 57.8C358.165 57.8 347.951 55.32 341.391 50.36C334.831 45.3467 332.031 38.2267 332.991 29C333.951 19.7733 338.245 12.68 345.871 7.72C353.498 2.70666 364.245 0.199997 378.111 0.199997C386.805 0.199997 395.151 1.42666 403.151 3.88L401.711 17.24C395.845 14.4667 388.165 13.08 378.671 13.08C370.831 13.08 364.618 14.44 360.031 17.16C355.498 19.8267 352.965 23.7733 352.431 29C351.898 34.28 353.605 38.3067 357.551 41.08C361.498 43.8 367.338 45.16 375.071 45.16C377.738 45.16 380.618 44.68 383.711 43.72L384.591 35H367.951L368.911 25.8ZM431.676 44.12H480.236L478.876 57H411.036L416.956 0.999996H483.756L482.396 13.88H434.876L433.916 23.16H475.836L474.636 34.36H432.716L431.676 44.12ZM541.805 32.12L545.085 0.999996H563.565L557.645 57H538.605L510.365 26.04H510.045L506.765 57H488.205L494.125 0.999996H512.925L541.485 32.12H541.805ZM591.873 44.12H640.433L639.073 57H571.233L577.153 0.999996H643.953L642.593 13.88H595.073L594.113 23.16H636.033L634.833 34.36H592.913L591.873 44.12ZM684.642 20.92C688.482 21.24 691.655 21.56 694.162 21.88C700.829 22.6267 705.629 23.7467 708.562 25.24C714.429 28.0667 716.935 32.5467 716.082 38.68C715.495 44.7067 712.082 49.4 705.842 52.76C699.602 56.12 691.015 57.8 680.082 57.8C674.642 57.8 668.375 57.1867 661.282 55.96C654.669 54.7867 648.962 53.4533 644.162 51.96L645.602 37.72C649.389 39.48 654.375 41.08 660.562 42.52C666.909 43.96 672.989 44.68 678.802 44.68C690.162 44.68 696.002 43.2667 696.322 40.44C696.375 39.6933 696.135 39.08 695.602 38.6C695.122 38.0667 694.295 37.6667 693.122 37.4C690.935 36.8667 686.429 36.36 679.602 35.88C677.682 35.7733 674.695 35.5067 670.642 35.08C667.922 34.7067 665.335 34.28 662.882 33.8C660.002 33.2133 657.789 32.5467 656.242 31.8C649.949 28.8133 647.255 24.28 648.162 18.2C649.442 6.2 661.949 0.199997 685.682 0.199997C690.375 0.199997 695.042 0.546664 699.682 1.24C707.042 2.2 712.082 3.21333 714.802 4.28L713.442 17.8L708.802 16.36C707.149 15.88 703.735 15.2133 698.562 14.36C693.655 13.56 688.882 13.16 684.242 13.16C673.842 13.16 668.535 14.3867 668.322 16.84C668.162 18.1733 669.255 19.08 671.602 19.56C674.109 20.0933 678.455 20.5467 684.642 20.92ZM761.466 37.72L759.466 57H740.186L742.266 37.64L715.626 0.999996H736.826L753.226 23.56H753.546L774.746 0.999996H795.946L761.466 37.72Z" fill="#D6DA2E"/>
</svg>
