<svg width="101" height="45" viewBox="0 0 101 45" fill="none" xmlns="http://www.w3.org/2000/svg">
<path d="M44.3631 9.00755L58.6456 9.80661L64.8924 16.9502C64.97 17.0191 75.0785 20.1617 78.9742 22.7964C79.226 22.9651 84.8065 25.688 90.4987 37.256C91.324 38.9307 88.318 44.5701 87.8352 44.7291C83.4114 46.218 52.6771 41.1037 52.3193 40.7051C51.9615 40.3066 35.2655 37.6392 35.0459 37.4744C34.8263 37.3096 27.5251 34.261 27.5535 33.734C27.5819 33.2071 26.6752 21.9073 26.9156 18.9008C27.156 15.8943 32.727 7.37305 32.727 7.37305L44.3631 9.00755Z" fill="#E95935"/>
<path d="M59.3832 17.3607C58.6639 16.8989 46.2289 9.83962 46.793 6.75647C47.3571 3.67333 50.367 0.49054 51.9665 0.101554C53.5661 -0.287432 55.5632 0.542279 56.0232 0.887192C56.4832 1.23211 64.0664 15.1839 64.0664 15.1839C64.0664 15.1839 59.8337 17.6481 59.3832 17.3607Z" fill="#D5D92F"/>
<path d="M4.63503 29.4625H0.00292969L1.22768 18.7529H9.58515C11.9135 18.7529 13.5421 19.0915 14.4709 19.7685C15.3997 20.4456 15.7891 21.4413 15.6389 22.7558C15.5882 23.3659 15.3938 23.9548 15.072 24.4733C14.7502 24.9917 14.3104 25.4245 13.7894 25.7355C12.7016 26.4164 10.9979 26.7549 8.67842 26.7511H4.94359L4.63503 29.4625ZM5.27675 23.9381H8.96805C9.46716 23.9588 9.96353 23.8535 10.4124 23.6315C10.5806 23.5476 10.7253 23.4222 10.8332 23.2668C10.941 23.1114 11.0085 22.9311 11.0295 22.7424C11.0553 22.571 11.0283 22.3956 10.9521 22.2403C10.8758 22.0849 10.7541 21.9572 10.6036 21.8744C10.1769 21.6471 9.69741 21.5412 9.21602 21.5678H5.53609L5.27675 23.9381Z" fill="#0E71B6"/>
<path d="M29.8892 29.4547H16.0439L17.2706 18.7451H21.9122L20.9941 26.6398H30.2053L29.8892 29.4547Z" fill="#0E71B6"/>
<path d="M46.9487 18.7451L45.7145 29.4547H41.2017L36.0736 24.3308H35.9846L35.4016 29.4547H30.9531L32.1836 18.7451H36.632L41.8358 23.9188H41.9153L42.5173 18.7451H46.9487Z" fill="#0E71B6"/>
<path d="M56.1905 29.6353C53.1491 29.6353 50.9337 29.1499 49.5443 28.179C48.1548 27.2081 47.5598 25.8585 47.7592 24.1301C47.9548 22.3979 48.8559 21.0463 50.4624 20.0754C52.0689 19.1046 54.3953 18.6191 57.4418 18.6191C59.1941 18.619 60.9403 18.8293 62.6437 19.2457L62.3105 22.1507C61.0939 21.6729 59.5278 21.434 57.6121 21.434C54.4307 21.434 52.7346 22.3282 52.5238 24.1167C52.4178 25.0211 52.7415 25.709 53.5044 26.1708C54.2673 26.6326 55.4125 26.8664 56.9288 26.8664C57.2875 26.8602 57.6454 26.8301 58.0002 26.7764L58.1478 25.3948H55.2781L55.5299 23.2736H63.0279L62.4108 28.5622C61.4603 28.8979 60.4794 29.1379 59.4824 29.2789C58.3942 29.4764 57.2921 29.586 56.1867 29.6066L56.1905 29.6353Z" fill="#0E71B6"/>
<path d="M79.7972 18.7451L78.5611 29.4547H74.0445L68.9069 24.3308H68.818L68.2501 29.4547H63.7959L65.0225 18.7451H69.4748L74.6767 23.9188H74.7581L75.3582 18.7451H79.7972Z" fill="#0E71B6"/>
<path d="M95.1928 25.8991C95.054 27.0718 94.329 27.9903 93.0178 28.6545C91.7066 29.3188 89.8805 29.6503 87.5395 29.649C86.1655 29.6377 84.7938 29.5327 83.4337 29.3348C82.2335 29.1888 81.0471 28.944 79.8862 28.6028L80.2345 25.5369C81.2779 25.9537 82.3606 26.2613 83.4658 26.4548C84.6909 26.7135 85.9379 26.8515 87.1893 26.8667C89.2918 26.8667 90.3645 26.6751 90.4074 26.2919C90.4107 26.2457 90.4002 26.1997 90.3772 26.1597C90.3542 26.1197 90.3199 26.0876 90.2787 26.0677C90.116 25.9852 89.9394 25.9344 89.7581 25.9182C89.5063 25.8799 89.2224 25.8435 88.8987 25.8128C88.575 25.7822 88.1415 25.7458 87.5831 25.7074C87.4789 25.7074 87.3938 25.694 87.3408 25.694C86.6025 25.6404 85.9684 25.581 85.4478 25.5216C84.9272 25.4622 84.3839 25.3798 83.816 25.2744C83.3391 25.1978 82.8732 25.0626 82.4285 24.872C82.0799 24.7106 81.7503 24.5101 81.446 24.2741C81.1561 24.0544 80.9405 23.7492 80.8289 23.4004C80.7111 23.0136 80.6807 22.6049 80.74 22.2046C80.8047 21.5486 81.0846 20.9333 81.535 20.4571C82.0429 19.9379 82.6708 19.5553 83.3617 19.3438C84.1626 19.0804 84.9867 18.8956 85.8226 18.7919C86.8163 18.6719 87.8165 18.6143 88.8173 18.6195C89.8099 18.6217 90.8016 18.6819 91.7874 18.7996C92.5693 18.8801 93.3465 19.0022 94.1157 19.1656L94.9127 19.3438L94.5795 22.2181C94.3902 22.151 94.1328 22.0686 93.792 21.9728C93.4513 21.877 92.7528 21.7409 91.6908 21.5685C90.6265 21.3979 89.5504 21.3133 88.4728 21.3155C86.5968 21.3155 85.6484 21.4861 85.6163 21.8367C85.6068 21.9191 85.656 21.9862 85.7526 22.0456C85.9314 22.1298 86.1238 22.1804 86.3204 22.1951C86.6044 22.2334 86.8883 22.2641 87.2045 22.2928C87.5206 22.3215 87.9617 22.3522 88.5428 22.3829C89.2413 22.4346 89.8262 22.4806 90.2881 22.5247C90.75 22.5687 91.2535 22.63 91.7892 22.7163C92.2339 22.7798 92.6736 22.8752 93.1049 23.0018C93.4499 23.1082 93.784 23.2481 94.1025 23.4195C94.3848 23.5545 94.6342 23.7508 94.8332 23.9944C95.0058 24.2309 95.13 24.5 95.1985 24.7857C95.2835 25.1301 95.3053 25.4873 95.2629 25.8397L95.1928 25.8991Z" fill="#0E71B6"/>
<path d="M56.2431 36.2171C56.3443 36.2312 56.4423 36.263 56.5327 36.311C56.6028 36.3494 56.664 36.4022 56.7126 36.4662C56.7553 36.5225 56.7845 36.5881 56.7977 36.6578C56.81 36.7269 56.81 36.7976 56.7977 36.8667C56.7871 36.934 56.7646 36.9989 56.7315 37.0583C56.6982 37.1214 56.6509 37.1759 56.5933 37.2173C56.5275 37.2623 56.4535 37.2935 56.3756 37.3093C56.2749 37.3285 56.1716 37.3285 56.0709 37.3093L55.6412 37.2422L55.5466 37.8554L55.1377 37.7922L55.4008 36.0791L56.2431 36.2171ZM56.0084 37.0046C56.0534 37.0123 56.099 37.0161 56.1447 37.0161C56.1853 37.0179 56.2259 37.0114 56.2639 36.997C56.2999 36.9836 56.3318 36.9612 56.3567 36.9318C56.3841 36.8949 56.4011 36.8512 56.4059 36.8053C56.4189 36.7609 56.4189 36.7137 56.4059 36.6693C56.3916 36.6331 56.3681 36.6013 56.3378 36.5773C56.305 36.5534 56.2686 36.5353 56.2299 36.5237C56.1861 36.5094 56.1411 36.4991 56.0955 36.493L55.7775 36.4413L55.6999 36.9548L56.0084 37.0046Z" fill="white"/>
<path d="M57.8109 36.4665L58.2444 38.2869L57.8204 38.2198L57.7371 37.8174L57.0424 37.7082L56.838 38.0665L56.4272 38.0013L57.3926 36.3994L57.8109 36.4665ZM57.6746 37.5185L57.5365 36.8535L57.1976 37.4437L57.6746 37.5185Z" fill="white"/>
<path d="M59.0128 36.6522L58.7989 38.0472L59.7056 38.189L59.6564 38.5071L58.3408 38.3078L58.6039 36.5947L59.0128 36.6522Z" fill="white"/>
<path d="M60.4909 36.8835L60.2297 38.5947L59.8208 38.5315L60.082 36.8203L60.4909 36.8835Z" fill="white"/>
<path d="M61.1914 36.9958L61.7933 38.2663L61.9693 37.1165L62.3479 37.1759L62.0924 38.8833L61.6835 38.82L61.0854 37.5534L60.9093 38.7031L60.5308 38.6437L60.7939 36.9307L61.1914 36.9958Z" fill="white"/>
<path d="M63.4934 39.0963C63.4027 39.1166 63.309 39.1199 63.2171 39.1059C63.084 39.0875 62.9556 39.044 62.8385 38.9775C62.7371 38.9184 62.6488 38.8388 62.5792 38.7437C62.5141 38.6502 62.4678 38.5448 62.4429 38.4333C62.4179 38.3155 62.4147 38.194 62.4334 38.075C62.4515 37.9531 62.4913 37.8356 62.5508 37.7281C62.608 37.6287 62.6839 37.5414 62.7741 37.4714C62.8684 37.3995 62.9768 37.3492 63.0921 37.3238C63.2222 37.2954 63.3564 37.2922 63.4877 37.3142C63.5814 37.3295 63.6725 37.3579 63.7584 37.3986C63.8411 37.4372 63.9171 37.4889 63.9837 37.5518C64.0465 37.6146 64.0972 37.6887 64.1332 37.7703C64.1679 37.8565 64.1835 37.9494 64.1786 38.0424L63.7887 37.9811C63.7814 37.8915 63.7432 37.8074 63.6808 37.7435C63.6129 37.6823 63.5286 37.6429 63.4385 37.6304C63.3578 37.616 63.2749 37.6206 63.1962 37.6438C63.1298 37.6646 63.0694 37.7014 63.0202 37.7511C62.9705 37.8008 62.9313 37.8601 62.9047 37.9255C62.8475 38.06 62.8247 38.207 62.8385 38.3528C62.8468 38.4197 62.8667 38.4845 62.8972 38.5444C62.9298 38.6063 62.9765 38.6595 63.0334 38.6996C63.1018 38.7452 63.1795 38.7747 63.2606 38.7859C63.3723 38.8105 63.489 38.7942 63.5899 38.7399C63.6776 38.6817 63.7388 38.5908 63.7603 38.4869L63.3477 38.4218L63.3912 38.142L64.173 38.2647L64.031 39.1883L63.7698 39.148L63.7584 38.9468C63.6837 39.0181 63.5926 39.0695 63.4934 39.0963Z" fill="white"/>
<path d="M65.9537 37.7419L65.9045 38.0581L64.9221 37.9048L64.8672 38.2707L65.7682 38.4125L65.7228 38.7057L64.8217 38.5639L64.7574 38.9836L65.7606 39.1407L65.7114 39.4569L64.2993 39.2346L64.5624 37.5234L65.9537 37.7419Z" fill="white"/>
<path d="M66.592 37.8426L67.192 39.113L67.3681 37.9633L67.7467 38.0246L67.4836 39.7358L67.0747 39.6706L66.4784 38.404L66.3024 39.5537L65.9238 39.4924L66.185 37.7812L66.592 37.8426Z" fill="white"/>
<path d="M69.4406 38.2917L69.3932 38.6079L68.4108 38.4526L68.3541 38.8206L69.2551 38.9624L69.2115 39.2536L68.3105 39.1137L68.2462 39.5315L69.2475 39.6905L69.2002 40.0067L67.7881 39.7844L68.0512 38.0732L69.4406 38.2917Z" fill="white"/>
<path d="M69.7878 39.6677C69.8038 39.7098 69.8298 39.7473 69.8635 39.7769C69.899 39.8105 69.9409 39.8366 69.9865 39.8536C70.0359 39.8734 70.0873 39.8875 70.1398 39.8957C70.1793 39.9021 70.2191 39.9053 70.2591 39.9053C70.2999 39.9077 70.3409 39.9032 70.3802 39.8919C70.418 39.8834 70.4531 39.8656 70.4824 39.8401C70.5116 39.8146 70.5304 39.7792 70.5354 39.7405C70.5395 39.7192 70.5388 39.6973 70.5332 39.6764C70.5276 39.6554 70.5174 39.6361 70.5033 39.6198C70.4721 39.5815 70.4335 39.5501 70.3897 39.5278C70.3346 39.4979 70.2777 39.4717 70.2193 39.4492C70.155 39.4243 70.0906 39.3994 70.03 39.3707C69.9653 39.3437 69.9021 39.313 69.8408 39.2787C69.7811 39.248 69.7263 39.2087 69.678 39.1618C69.6324 39.1178 69.5968 39.0641 69.5739 39.0047C69.5491 38.9381 69.5425 38.8659 69.5549 38.7958C69.5649 38.7149 69.5986 38.6389 69.6515 38.5774C69.7034 38.5179 69.7682 38.4713 69.8408 38.4413C69.916 38.4066 69.9968 38.3858 70.0793 38.38C70.1641 38.3694 70.2499 38.3694 70.3348 38.38C70.4287 38.3947 70.5207 38.4198 70.6093 38.4547C70.6913 38.4851 70.767 38.5306 70.8326 38.5889C70.8935 38.6408 70.9414 38.7064 70.9727 38.7805C71.003 38.8645 71.0102 38.9552 70.9935 39.043L70.5979 38.9798C70.6042 38.9351 70.5989 38.8896 70.5828 38.8476C70.568 38.8116 70.5445 38.78 70.5146 38.7556C70.4825 38.7308 70.4468 38.7114 70.4086 38.6981C70.3638 38.6819 70.3175 38.6703 70.2704 38.6636C70.2371 38.6607 70.2035 38.6607 70.1701 38.6636C70.1378 38.6648 70.1058 38.6713 70.0755 38.6828C70.047 38.6936 70.0211 38.7106 69.9998 38.7326C69.9777 38.7563 69.9638 38.7865 69.96 38.8188C69.952 38.847 69.952 38.8769 69.96 38.905C69.9783 38.9346 70.0037 38.9591 70.0338 38.9759C70.0856 39.0058 70.1394 39.0321 70.1947 39.0545L70.4673 39.1656C70.5014 39.1771 70.5468 39.1963 70.6074 39.2231C70.6687 39.2517 70.726 39.2884 70.7777 39.3324C70.834 39.3797 70.8797 39.4384 70.9121 39.5048C70.9491 39.5815 70.9598 39.6685 70.9424 39.752C70.9313 39.827 70.9035 39.8984 70.861 39.9609C70.8159 40.0249 70.7562 40.0768 70.6869 40.1122C70.6054 40.1527 70.5177 40.1787 70.4275 40.1889C70.2119 40.2069 69.995 40.1748 69.7934 40.095C69.7058 40.0599 69.6251 40.0093 69.5549 39.9455C69.4899 39.8859 69.4393 39.8118 69.4073 39.729C69.3752 39.6381 69.368 39.5401 69.3865 39.4454L69.7821 39.5067C69.771 39.56 69.7729 39.6153 69.7878 39.6677Z" fill="white"/>
<path d="M71.0977 38.5527L71.5576 38.6236L71.8889 39.369L72.4246 38.7597L72.8807 38.8325L72.0289 39.7791L71.9267 40.4344L71.5179 40.3712L71.6201 39.7044L71.0977 38.5527Z" fill="white"/>
<path d="M72.7894 40.1911L72.7326 40.559L72.3237 40.4958L72.3786 40.126L72.7894 40.1911Z" fill="white"/>
<path d="M74.9059 39.0846L75.3545 40.972L74.9154 40.9031L74.8283 40.4853L74.1071 40.3723L73.8951 40.744L73.4692 40.677L74.4706 39.0156L74.9059 39.0846ZM74.7621 40.1768L74.6201 39.487L74.268 40.0983L74.7621 40.1768Z" fill="white"/>
<path d="M76.1512 39.279L75.8786 41.0534L75.4546 40.9863L75.7272 39.2119L76.1512 39.279Z" fill="white"/>
<path d="M76.8783 39.3923L77.501 40.7107L77.6903 39.5207L78.0878 39.582L77.8152 41.3583L77.3912 41.2913L76.7704 39.9768L76.5811 41.1667L76.1836 41.1035L76.4562 39.3291L76.8783 39.3923Z" fill="white"/>
<path d="M78.7715 39.6903L78.7147 40.0735C78.7078 40.1261 78.6911 40.1768 78.6655 40.223C78.6401 40.2678 78.6059 40.3069 78.5652 40.338C78.5244 40.3698 78.4782 40.3938 78.4289 40.4089C78.3764 40.4263 78.3213 40.4341 78.2661 40.4319L78.2907 40.2671C78.3498 40.2624 78.4051 40.2358 78.4459 40.1923C78.4801 40.1494 78.5017 40.0976 78.5084 40.0429L78.3305 40.0161L78.3891 39.6328L78.7715 39.6903Z" fill="white"/>
<path d="M78.874 40.0425L78.9232 39.7148L80.5038 39.962L80.4546 40.2916L79.8754 40.1996L79.6539 41.6483L79.2299 41.5812L79.4514 40.1345L78.874 40.0425Z" fill="white"/>
<path d="M81.7664 40.1618L81.4938 41.9362L81.0698 41.871L81.3424 40.0947L81.7664 40.1618Z" fill="white"/>
<path d="M81.8701 40.5142L81.9193 40.1846L83.4999 40.4337L83.4506 40.7613L82.8714 40.6713L82.65 42.118L82.226 42.0509L82.4474 40.6042L81.8701 40.5142Z" fill="white"/>
<path d="M85.1716 40.6956C85.2897 40.713 85.4041 40.7499 85.5104 40.8048C85.6076 40.8554 85.6933 40.9258 85.7622 41.0118C85.8318 41.1003 85.8803 41.2039 85.9041 41.3145C85.93 41.4454 85.93 41.5802 85.9041 41.7112C85.8866 41.8325 85.8502 41.9502 85.7962 42.0599C85.7459 42.1608 85.6742 42.2493 85.5862 42.3188C85.4981 42.3884 85.396 42.4374 85.2871 42.4623C85.1566 42.4895 85.022 42.4895 84.8915 42.4623L84.0586 42.332L84.3312 40.5576L85.1716 40.6956ZM84.9198 42.1404C84.9825 42.1508 85.0465 42.1508 85.1091 42.1404C85.1697 42.1316 85.2274 42.1086 85.2776 42.0733C85.3325 42.0347 85.3784 41.9843 85.412 41.9258C85.4524 41.8502 85.4787 41.7677 85.4896 41.6824C85.5029 41.6014 85.5061 41.519 85.4991 41.4371C85.4917 41.366 85.4691 41.2973 85.4328 41.2359C85.3952 41.1751 85.3423 41.1255 85.2795 41.0922C85.1999 41.0478 85.1124 41.0198 85.0221 41.0098L84.7211 40.9619L84.5488 42.081L84.9198 42.1404Z" fill="white"/>
<path d="M86.7009 40.9363L86.4245 42.7164L86.0005 42.6493L86.2731 40.873L86.7009 40.9363Z" fill="white"/>
<path d="M88.3593 41.1962L88.3101 41.5258L87.3769 41.3783L87.3144 41.7883L88.1227 41.9148L88.0754 42.2195L87.2671 42.093L87.1554 42.825L86.7314 42.7599L87.004 40.9912L88.3593 41.1962Z" fill="white"/>
<path d="M89.895 41.4373L89.8438 41.7573L88.9126 41.6117L88.8501 42.0217L89.6564 42.1482L89.611 42.4529L88.8028 42.3322L88.6911 43.0661L88.2671 42.999L88.5378 41.2246L89.895 41.4373Z" fill="white"/>
<path d="M91.5147 41.693L91.4655 42.0206L90.4472 41.8616L90.3885 42.2448L91.3235 42.3924L91.2762 42.6952L90.3412 42.5495L90.2749 42.9845L91.316 43.1474L91.2649 43.475L89.7998 43.2451L90.0724 41.4707L91.5147 41.693Z" fill="white"/>
<path d="M92.7965 41.8931C92.876 41.904 92.953 41.9293 93.0236 41.9679C93.0861 42.0013 93.1414 42.0469 93.1864 42.102C93.2281 42.1523 93.2584 42.2111 93.2754 42.2744C93.2918 42.3369 93.2956 42.4021 93.2867 42.4661C93.2738 42.5614 93.2344 42.6511 93.1732 42.7247C93.1038 42.7991 93.0118 42.8477 92.912 42.8627C92.9574 42.8808 92.9986 42.9082 93.0331 42.9432C93.0619 42.976 93.085 43.0136 93.1012 43.0543C93.1167 43.0962 93.1262 43.1401 93.1296 43.1846C93.1325 43.2299 93.1325 43.2754 93.1296 43.3207C93.1296 43.3494 93.1296 43.3839 93.1202 43.4222C93.1181 43.4618 93.1181 43.5015 93.1202 43.541C93.1173 43.5793 93.1173 43.6178 93.1202 43.656C93.1239 43.6905 93.1349 43.7238 93.1524 43.7537L92.7265 43.6886C92.7118 43.62 92.708 43.5495 92.7151 43.4797C92.7151 43.4012 92.7151 43.3245 92.7151 43.2517C92.7195 43.1741 92.6982 43.0972 92.6545 43.0333C92.596 42.9738 92.5178 42.9383 92.435 42.9336L92.011 42.8666L91.905 43.5602L91.481 43.4931L91.7516 41.7188L92.7965 41.8931ZM92.522 42.673C92.5992 42.6907 92.6799 42.6812 92.7511 42.6462C92.7805 42.6256 92.805 42.5985 92.8227 42.567C92.8404 42.5355 92.8508 42.5003 92.8533 42.4641C92.8605 42.4308 92.8601 42.3963 92.8523 42.3631C92.8444 42.3299 92.8292 42.2989 92.8079 42.2725C92.75 42.2189 92.676 42.1865 92.5978 42.1806L92.134 42.1077L92.0564 42.6079L92.522 42.673Z" fill="white"/>
<path d="M95.083 42.2505L95.03 42.5801L94.0117 42.4191L93.953 42.8024L94.8881 42.948L94.8407 43.2508L93.9057 43.1032L93.8394 43.5382L94.8805 43.7011L94.8294 44.0307L93.3662 43.8007L93.6369 42.0244L95.083 42.2505Z" fill="white"/>
<path d="M95.744 42.3571L96.3667 43.6735L96.556 42.4836L96.9516 42.5468L96.681 44.3212L96.257 44.2541L95.6361 42.9396L95.4468 44.1277L95.0493 44.0663L95.3219 42.29L95.744 42.3571Z" fill="white"/>
<path d="M97.0557 42.9068L97.1068 42.5791L98.6873 42.8282L98.6362 43.1559L98.0683 43.0658L97.8469 44.5125L97.421 44.4455L97.6443 42.9987L97.0557 42.9068Z" fill="white"/>
<path d="M98.7406 43.16C98.7833 43.0924 98.8386 43.0338 98.9034 42.9876C98.9712 42.9404 99.0479 42.9077 99.1287 42.8918C99.22 42.8746 99.3137 42.8746 99.405 42.8918C99.5139 42.9061 99.6195 42.9392 99.7174 42.9895C99.7898 43.0276 99.8541 43.0796 99.9067 43.1428C99.949 43.1933 99.9795 43.2529 99.9956 43.3172C100.006 43.3697 100.006 43.4237 99.9956 43.4762C99.9885 43.5438 99.9672 43.6092 99.9332 43.6678C99.9045 43.7124 99.8694 43.7525 99.829 43.7866C99.7906 43.8171 99.7486 43.8429 99.7041 43.8633C99.6587 43.8824 99.617 43.9016 99.5773 43.9227C99.5376 43.9417 99.5006 43.9662 99.4675 43.9955C99.433 44.0259 99.408 44.0659 99.3956 44.1105L99.3804 44.2063L99.017 44.1488L99.034 44.0357C99.0575 43.9235 99.12 43.8236 99.2101 43.7541C99.2458 43.7261 99.2846 43.7024 99.3255 43.6832C99.3653 43.664 99.4032 43.6429 99.4372 43.6238C99.4694 43.6043 99.4987 43.5805 99.5243 43.5529C99.5487 43.5223 99.5633 43.4848 99.5659 43.4456C99.5736 43.4151 99.5745 43.3834 99.5686 43.3526C99.5627 43.3218 99.5502 43.2927 99.5319 43.2673C99.4904 43.2204 99.4329 43.191 99.371 43.185C99.3287 43.1741 99.2845 43.1741 99.2423 43.185C99.2059 43.1961 99.1723 43.2151 99.1438 43.2405C99.1163 43.2671 99.0944 43.299 99.0795 43.3344C99.0621 43.3735 99.05 43.4147 99.0435 43.457L98.646 43.3957C98.6628 43.3119 98.6949 43.232 98.7406 43.16ZM99.388 44.3538L99.3293 44.7371L98.9034 44.67L98.9621 44.2868L99.388 44.3538Z" fill="white"/>
</svg>
