<svg width="258" height="93" viewBox="0 0 258 93" fill="none" xmlns="http://www.w3.org/2000/svg">
<path d="M75.4126 57.416C71.0446 57.416 67.6846 56.624 65.3326 55.04C63.0046 53.432 61.8406 51.116 61.8406 48.092C61.8406 45.5 62.5246 43.244 63.8926 41.324C65.2606 39.38 67.2406 37.88 69.8326 36.824C72.4486 35.768 75.5686 35.24 79.1926 35.24H80.7406C85.0126 35.24 88.3006 36.056 90.6046 37.688C92.9326 39.296 94.0966 41.612 94.0966 44.636C94.0966 47.276 93.4006 49.556 92.0086 51.476C90.6406 53.372 88.6726 54.836 86.1046 55.868C83.5606 56.9 80.5366 57.416 77.0326 57.416H75.4126ZM76.4566 52.916H77.0686C79.5646 52.916 81.6406 52.628 83.2966 52.052C84.9766 51.476 86.2366 50.636 87.0766 49.532C87.9166 48.404 88.3366 47.036 88.3366 45.428C88.3366 43.46 87.6406 42.032 86.2486 41.144C84.8806 40.232 82.7326 39.776 79.8046 39.776H79.1566C76.5646 39.776 74.4046 40.064 72.6766 40.64C70.9726 41.216 69.7006 42.056 68.8606 43.16C68.0206 44.264 67.6006 45.644 67.6006 47.3C67.6006 49.244 68.3086 50.672 69.7246 51.584C71.1646 52.472 73.4086 52.916 76.4566 52.916ZM72.5326 60.116L77.9686 32.72H83.3686L77.8966 60.116H72.5326ZM96.7609 59L101.801 33.8H107.669L102.629 59H96.7609ZM132.117 33.8H137.949L132.909 59H127.077L132.117 33.8ZM115.665 59H109.797L114.837 33.8H120.705L115.665 59ZM129.597 48.668H117.321L118.293 43.736H130.569L129.597 48.668ZM137.459 59L153.731 33.8H159.527L165.719 59H159.887L154.991 36.68H157.295L143.687 59H137.459ZM144.191 53.6L146.567 49.172H159.563L160.247 53.6H144.191ZM170.534 59.432C170.03 59.432 169.55 59.396 169.094 59.324C168.638 59.252 168.158 59.156 167.654 59.036L168.986 54.14C169.298 54.212 169.622 54.248 169.958 54.248C170.87 54.248 171.662 53.924 172.334 53.276C173.006 52.628 173.63 51.56 174.206 50.072C174.806 48.56 175.394 46.544 175.97 44.024L178.418 33.8H197.786L192.746 59H186.986L191.342 37.22L192.386 38.552H181.262L182.774 37.148L181.01 44.636C180.362 47.42 179.702 49.76 179.03 51.656C178.382 53.528 177.65 55.04 176.834 56.192C176.042 57.32 175.13 58.148 174.098 58.676C173.066 59.18 171.878 59.432 170.534 59.432Z" fill="#EA5A37"/>
<path d="M68.6008 13.349C24.8625 24.5516 -30.7208 55.266 26.2408 78.8261C83.2023 102.386 186.723 87.1146 228.149 71.8967C252.58 62.9218 276.159 38.4275 228.149 20.9653C180.139 3.50311 82.6892 0.219435 48.4445 2.76023" stroke="#EA5A37" stroke-width="3" stroke-dasharray="10 10"/>
</svg>
