<svg width="382" height="93" viewBox="0 0 382 93" fill="none" xmlns="http://www.w3.org/2000/svg">
<path d="M42.082 54.176C42.946 54.464 43.738 54.596 44.458 54.572C45.202 54.548 45.91 54.368 46.582 54.032C47.278 53.672 47.926 53.132 48.526 52.412L50.11 50.756L50.758 50.144L62.458 33.8H68.29L53.602 53.924C52.306 55.7 50.914 57.044 49.426 57.956C47.938 58.868 46.402 59.36 44.818 59.432C43.234 59.504 41.674 59.192 40.138 58.496L42.082 54.176ZM50.002 55.004L42.766 33.8H48.85L53.89 50.72L50.002 55.004ZM89.4566 33.8H95.2886L90.2486 59H84.4166L89.4566 33.8ZM73.0046 59H67.1366L72.1766 33.8H78.0446L73.0046 59ZM86.9366 48.668H74.6606L75.6326 43.736H87.9086L86.9366 48.668ZM97.4984 59L102.538 33.8H108.406L103.366 59H97.4984ZM110.571 59L115.611 33.8H121.443L116.403 59H110.571ZM116.727 48.812L117.663 43.988H126.483L125.547 48.812H116.727ZM127.275 59L121.839 46.832L126.699 44.132L133.539 59H127.275ZM126.843 47.012L121.227 46.364L131.919 33.8H138.471L126.843 47.012ZM134.048 59L150.32 33.8H156.116L162.308 59H156.476L151.58 36.68H153.884L140.276 59H134.048ZM140.78 53.6L143.156 49.172H156.152L156.836 53.6H140.78ZM167.123 59.432C166.619 59.432 166.139 59.396 165.683 59.324C165.227 59.252 164.747 59.156 164.243 59.036L165.575 54.14C165.887 54.212 166.211 54.248 166.547 54.248C167.459 54.248 168.251 53.924 168.923 53.276C169.595 52.628 170.219 51.56 170.795 50.072C171.395 48.56 171.983 46.544 172.559 44.024L175.007 33.8H194.375L189.335 59H183.575L187.931 37.22L188.975 38.552H177.851L179.363 37.148L177.599 44.636C176.951 47.42 176.291 49.76 175.619 51.656C174.971 53.528 174.239 55.04 173.423 56.192C172.631 57.32 171.719 58.148 170.687 58.676C169.655 59.18 168.467 59.432 167.123 59.432ZM212.08 42.08C217.672 42.08 220.468 44.372 220.468 48.956C220.468 50.972 219.964 52.736 218.956 54.248C217.948 55.76 216.508 56.936 214.636 57.776C212.788 58.592 210.616 59 208.12 59H196.744L201.784 33.8H207.544L205.888 42.08H212.08ZM208.624 54.68C209.8 54.68 210.82 54.476 211.684 54.068C212.572 53.636 213.256 53.036 213.736 52.268C214.216 51.5 214.456 50.612 214.456 49.604C214.456 48.476 214.132 47.66 213.484 47.156C212.86 46.652 211.852 46.4 210.46 46.4H205.024L203.368 54.68H208.624ZM246.194 33.8H252.026L246.986 59H241.154L246.194 33.8ZM229.742 59H223.874L228.914 33.8H234.782L229.742 59ZM243.674 48.668H231.398L232.37 43.736H244.646L243.674 48.668ZM254.236 59L259.276 33.8H265.144L260.104 59H254.236ZM280.449 59.432C277.881 59.432 275.661 58.976 273.789 58.064C271.941 57.128 270.513 55.844 269.505 54.212C268.497 52.556 267.993 50.648 267.993 48.488C267.993 46.352 268.365 44.36 269.109 42.512C269.877 40.664 270.945 39.068 272.313 37.724C273.705 36.356 275.349 35.288 277.245 34.52C279.165 33.752 281.301 33.368 283.653 33.368C285.909 33.368 287.901 33.752 289.629 34.52C291.357 35.288 292.665 36.392 293.553 37.832L289.341 41.288C288.693 40.328 287.865 39.596 286.857 39.092C285.849 38.588 284.649 38.336 283.257 38.336C281.841 38.336 280.557 38.588 279.405 39.092C278.253 39.572 277.257 40.268 276.417 41.18C275.601 42.068 274.977 43.112 274.545 44.312C274.113 45.512 273.897 46.784 273.897 48.128C273.897 49.4 274.173 50.516 274.725 51.476C275.277 52.412 276.081 53.144 277.137 53.672C278.193 54.2 279.465 54.464 280.953 54.464C282.249 54.464 283.461 54.236 284.589 53.78C285.717 53.3 286.737 52.556 287.649 51.548L291.105 55.076C289.785 56.612 288.213 57.728 286.389 58.424C284.589 59.096 282.609 59.432 280.449 59.432ZM300.226 59L304.51 37.22L305.554 38.552H296.302L297.238 33.8H319.09L318.154 38.552H308.686L310.27 37.22L305.986 59H300.226ZM334.164 42.08C339.756 42.08 342.552 44.372 342.552 48.956C342.552 50.972 342.048 52.736 341.04 54.248C340.032 55.76 338.592 56.936 336.72 57.776C334.872 58.592 332.7 59 330.204 59H318.828L323.868 33.8H329.628L327.972 42.08H334.164ZM330.708 54.68C331.884 54.68 332.904 54.476 333.768 54.068C334.656 53.636 335.34 53.036 335.82 52.268C336.3 51.5 336.54 50.612 336.54 49.604C336.54 48.476 336.216 47.66 335.568 47.156C334.944 46.652 333.936 46.4 332.544 46.4H327.108L325.452 54.68H330.708Z" fill="#EA5A37"/>
<path d="M101.377 13.349C36.1138 24.5516 -46.8235 55.266 38.1703 78.8261C123.164 102.386 277.63 87.1146 339.443 71.8967C375.897 62.9217 411.08 38.4275 339.443 20.9653C267.805 3.50311 122.398 0.219436 71.301 2.76023" stroke="#EA5A37" stroke-width="3" stroke-dasharray="10 10"/>
</svg>
