<svg width="203" height="93" viewBox="0 0 203 93" fill="none" xmlns="http://www.w3.org/2000/svg">
<path d="M53.4416 13.349C19.002 24.5516 -24.7644 55.266 20.0872 78.8261C64.9388 102.386 146.451 87.1146 179.07 71.8967C198.307 62.9217 216.874 38.4275 179.07 20.9653C141.267 3.50311 64.5348 0.219436 37.5705 2.76023" stroke="#EA5A37" stroke-width="3" stroke-dasharray="10 10"/>
<path d="M69.7772 43.952H81.9092L81.0092 48.488H68.8772L69.7772 43.952ZM68.1212 54.32H81.8733L80.9012 59H61.3892L66.4292 33.8H85.4732L84.5012 38.48H71.2892L68.1212 54.32ZM86.7279 59L91.7679 33.8H97.5999L92.5599 59H86.7279ZM92.8839 48.812L93.8199 43.988H102.64L101.704 48.812H92.8839ZM103.432 59L97.9959 46.832L102.856 44.132L109.696 59H103.432ZM103 47.012L97.3839 46.364L108.076 33.8H114.628L103 47.012ZM126.467 59.432C123.923 59.432 121.727 58.976 119.879 58.064C118.055 57.128 116.651 55.844 115.667 54.212C114.683 52.556 114.191 50.648 114.191 48.488C114.191 46.328 114.563 44.336 115.307 42.512C116.051 40.664 117.107 39.068 118.475 37.724C119.867 36.356 121.511 35.288 123.407 34.52C125.327 33.752 127.451 33.368 129.779 33.368C132.323 33.368 134.507 33.836 136.331 34.772C138.179 35.684 139.595 36.968 140.579 38.624C141.563 40.256 142.055 42.152 142.055 44.312C142.055 46.472 141.683 48.476 140.939 50.324C140.195 52.148 139.127 53.744 137.735 55.112C136.367 56.456 134.723 57.512 132.803 58.28C130.907 59.048 128.795 59.432 126.467 59.432ZM126.971 54.464C128.387 54.464 129.659 54.212 130.787 53.708C131.939 53.18 132.911 52.46 133.703 51.548C134.495 50.636 135.095 49.592 135.503 48.416C135.935 47.216 136.151 45.956 136.151 44.636C136.151 43.388 135.887 42.296 135.359 41.36C134.831 40.4 134.051 39.656 133.019 39.128C132.011 38.6 130.763 38.336 129.275 38.336C127.859 38.336 126.587 38.6 125.459 39.128C124.331 39.632 123.359 40.34 122.543 41.252C121.751 42.164 121.139 43.22 120.707 44.42C120.299 45.596 120.095 46.844 120.095 48.164C120.095 49.412 120.359 50.516 120.887 51.476C121.439 52.412 122.219 53.144 123.227 53.672C124.259 54.2 125.507 54.464 126.971 54.464Z" fill="#EA5A37"/>
</svg>
