<svg width="289" height="93" viewBox="0 0 289 93" fill="none" xmlns="http://www.w3.org/2000/svg">
<path d="M75.4997 33.8C78.6437 33.8 81.0677 34.496 82.7717 35.888C84.4997 37.256 85.3637 39.176 85.3637 41.648C85.3637 43.76 84.8597 45.608 83.8517 47.192C82.8677 48.752 81.4517 49.952 79.6037 50.792C77.7797 51.632 75.6197 52.052 73.1237 52.052H67.5077L66.1397 59H60.2717L65.3117 33.8H75.4997ZM73.3757 47.3C75.3197 47.3 76.8197 46.856 77.8757 45.968C78.9317 45.08 79.4597 43.808 79.4597 42.152C79.4597 40.952 79.0517 40.052 78.2357 39.452C77.4437 38.852 76.2917 38.552 74.7797 38.552H70.2077L68.4437 47.3H73.3757ZM100.859 59.432C98.3389 59.432 96.1549 58.976 94.3069 58.064C92.4589 57.152 91.0429 55.868 90.0589 54.212C89.0749 52.556 88.5829 50.648 88.5829 48.488C88.5829 45.632 89.2309 43.064 90.5269 40.784C91.8469 38.48 93.6829 36.668 96.0349 35.348C98.4109 34.028 101.123 33.368 104.171 33.368C106.691 33.368 108.875 33.824 110.723 34.736C112.571 35.648 113.987 36.932 114.971 38.588C115.955 40.244 116.447 42.152 116.447 44.312C116.447 47.168 115.787 49.748 114.467 52.052C113.171 54.332 111.335 56.132 108.959 57.452C106.607 58.772 103.907 59.432 100.859 59.432ZM101.363 54.464C103.211 54.464 104.831 54.02 106.223 53.132C107.615 52.244 108.683 51.056 109.427 49.568C110.171 48.08 110.543 46.436 110.543 44.636C110.543 42.716 109.943 41.192 108.743 40.064C107.543 38.912 105.851 38.336 103.667 38.336C101.819 38.336 100.199 38.78 98.8069 39.668C97.4149 40.556 96.3469 41.744 95.6029 43.232C94.8589 44.72 94.4869 46.364 94.4869 48.164C94.4869 50.084 95.0869 51.62 96.2869 52.772C97.4869 53.9 99.1789 54.464 101.363 54.464ZM124.535 33.8H144.839L143.867 38.444H129.323L128.315 43.628H135.335C137.927 43.628 139.907 44.204 141.275 45.356C142.667 46.484 143.363 48.128 143.363 50.288C143.363 52.088 142.883 53.648 141.923 54.968C140.963 56.264 139.583 57.26 137.783 57.956C136.007 58.652 133.883 59 131.411 59H119.495L124.535 33.8ZM131.951 54.68C133.631 54.68 134.951 54.332 135.911 53.636C136.871 52.94 137.351 51.968 137.351 50.72C137.351 49.76 137.015 49.052 136.343 48.596C135.695 48.14 134.675 47.912 133.283 47.912H127.451L126.119 54.68H131.951ZM160.218 59.432C157.698 59.432 155.514 58.976 153.666 58.064C151.818 57.152 150.402 55.868 149.418 54.212C148.434 52.556 147.942 50.648 147.942 48.488C147.942 45.632 148.59 43.064 149.886 40.784C151.206 38.48 153.042 36.668 155.394 35.348C157.77 34.028 160.482 33.368 163.53 33.368C166.05 33.368 168.234 33.824 170.082 34.736C171.93 35.648 173.346 36.932 174.33 38.588C175.314 40.244 175.806 42.152 175.806 44.312C175.806 47.168 175.146 49.748 173.826 52.052C172.53 54.332 170.694 56.132 168.318 57.452C165.966 58.772 163.266 59.432 160.218 59.432ZM160.722 54.464C162.57 54.464 164.19 54.02 165.582 53.132C166.974 52.244 168.042 51.056 168.786 49.568C169.53 48.08 169.902 46.436 169.902 44.636C169.902 42.716 169.302 41.192 168.102 40.064C166.902 38.912 165.21 38.336 163.026 38.336C161.178 38.336 159.558 38.78 158.166 39.668C156.774 40.556 155.706 41.744 154.962 43.232C154.218 44.72 153.846 46.364 153.846 48.164C153.846 50.084 154.446 51.62 155.646 52.772C156.846 53.9 158.538 54.464 160.722 54.464ZM201.83 38.552H193.694L189.662 59H183.902L187.934 38.552H179.978L180.914 33.8H202.766L201.83 38.552ZM219.598 53.6H207.862L204.586 59H198.358L214.666 33.8H220.426L226.618 59H220.786L219.598 53.6ZM218.626 49.172L216.502 39.452L210.562 49.172H218.626Z" fill="#EA5A37"/>
<path d="M76.7293 13.349C27.6528 24.5516 -34.7142 55.266 29.1993 78.8261C93.1128 102.386 209.268 87.1146 255.75 71.8967C283.163 62.9217 309.62 38.4275 255.75 20.9653C201.88 3.50311 92.5371 0.219436 54.1129 2.76023" stroke="#EA5A37" stroke-width="3" stroke-dasharray="10 10"/>
</svg>
