<svg width="478" height="125" viewBox="0 0 478 125" fill="none" xmlns="http://www.w3.org/2000/svg">
<path d="M182.414 45.4L175.742 79H168.446L172.382 59.032L159.566 75.448H156.11L149.198 58.84L145.166 79H137.87L144.59 45.4H150.926L159.326 66.328L175.742 45.4H182.414ZM197.874 51.64L196.434 58.936H212.034L210.834 64.984H195.186L193.65 72.76H211.986L210.69 79H184.674L191.394 45.4H216.786L215.49 51.64H197.874ZM224.557 45.4H238.621C242.045 45.4 244.989 45.976 247.453 47.128C249.949 48.248 251.853 49.864 253.165 51.976C254.509 54.088 255.181 56.568 255.181 59.416C255.181 63.32 254.301 66.76 252.541 69.736C250.781 72.68 248.317 74.968 245.149 76.6C242.013 78.2 238.381 79 234.253 79H217.837L224.557 45.4ZM234.493 72.616C237.117 72.616 239.389 72.072 241.309 70.984C243.261 69.864 244.749 68.344 245.773 66.424C246.797 64.472 247.309 62.28 247.309 59.848C247.309 57.32 246.493 55.352 244.861 53.944C243.229 52.504 240.861 51.784 237.757 51.784H231.085L226.909 72.616H234.493ZM265.174 45.4H272.998L266.278 79H258.454L265.174 45.4ZM299.068 71.8H283.42L279.052 79H270.748L292.492 45.4H300.172L308.428 79H300.652L299.068 71.8ZM297.772 65.896L294.94 52.936L287.02 65.896H297.772Z" fill="#EA5A37"/>
<path d="M126.549 17.4296C44.7547 32.6601 -59.1904 74.4179 47.3321 106.449C153.855 138.48 347.447 117.718 424.916 97.0281C470.605 84.8262 514.7 51.525 424.916 27.7843C335.133 4.04355 152.895 -0.420767 88.8549 3.03357" stroke="#EA5A37" stroke-width="3" stroke-dasharray="10 10"/>
</svg>
